<?xml version="1.0" encoding="UTF-8"?>
<svg id="Layer_2" xmlns="http://www.w3.org/2000/svg" viewBox="0 0 115.94 116.21">
  <defs>
    <style>
      .cls-1 {
        stroke: #000;
        stroke-linecap: round;
        stroke-miterlimit: 10;
        stroke-width: 7px;
      }

      .cls-2 {
        fill: #aa5530;
      }
    </style>
  </defs>
  <g id="Layer_1-2" data-name="Layer_1">
    <path class="cls-2" d="M5.22,50.01h86.04s8.56,54.67-28.89,61.4S2.47,98.74,5.22,82.25s-.24-29.16-.24-29.16l.24-3.08Z"/>
    <line class="cls-1" x1="90.27" y1="112.71" x2="6.81" y2="112.71"/>
    <g>
      <path d="M20.5,109.54c.42,0,.83,0,1.59,0-.55-.39-.86-.62-1.18-.83-10.3-6.77-17.15-16-19.82-28.1-.68-3.08-.92-6.3-1.01-9.46-.16-5.68-.05-11.36-.04-17.05,0-2.79,1.31-4.09,4.12-4.09,28.68,0,57.36,0,86.04,0,2.98,0,4.2,1.22,4.21,4.19,0,.52,0,1.05,0,1.74,1.36,0,2.64-.03,3.91,0,7.37.23,12.82,3.58,16.01,10.24,5.18,10.82-2.71,23.97-14.67,24.53-2.95.14-5.91.04-8.86.12-.44.01-1.08.27-1.27.62-3.96,7.39-9.53,13.24-16.61,17.67-.09.05-.14.16-.36.41.55,0,.94,0,1.34,0M6.9,56.89c0,3.04-.05,5.95.01,8.86.08,3.59,0,7.21.44,10.77.93,7.67,4.29,14.3,9.54,19.93,6.57,7.04,14.69,11.16,24.19,12.59,6.27.94,12.48.49,18.53-1.37,8.34-2.57,15.26-7.27,20.54-14.27,4.13-5.47,6.75-11.61,7.15-18.47.34-5.85.18-11.74.23-17.61,0-.14-.07-.27-.11-.43H6.9ZM92.57,83.81c2.64,0,5.08.23,7.46-.04,6.25-.72,10.45-7.37,8.53-13.36-2.11-6.59-7.9-8.32-14.16-7.42-.04,6.96.46,13.99-1.83,20.82Z"/>
      <path d="M33.21,11.85c-.09,3.96-1.73,6.98-4.38,9.51-.98.94-2.02,1.84-2.91,2.86-1.46,1.68-1.7,3.66-.7,5.6.72,1.39,1.71,2.66,2.72,3.87,1.77,2.12.92,5.12-1.73,5.72-1.14.26-2.2-.02-3.05-.82-2.74-2.59-4.66-5.66-5.23-9.45-.66-4.43,1.11-7.97,4.21-10.98.98-.95,2.02-1.84,2.91-2.86,1.45-1.68,1.69-3.65.7-5.61-.66-1.3-1.55-2.5-2.5-3.62-1.45-1.71-1.58-3.68-.17-5.07,1.45-1.44,3.51-1.33,5.13.31,2.95,2.98,4.8,6.48,4.99,10.53Z"/>
      <path d="M39.53,27.88c.06-4.23,1.77-7.24,4.45-9.79.93-.89,1.92-1.73,2.76-2.69,1.5-1.71,1.75-3.71.76-5.71-.65-1.3-1.55-2.51-2.49-3.62-1.44-1.69-1.57-3.69-.16-5.07,1.43-1.41,3.46-1.32,5.05.26,2.57,2.54,4.37,5.52,4.9,9.14.65,4.47-1.16,8.04-4.3,11.06-.98.94-2.03,1.83-2.9,2.87-1.3,1.54-1.65,3.4-.73,5.2.76,1.49,1.79,2.88,2.85,4.19,1.74,2.15.91,5.21-1.75,5.67-.9.15-2.17-.1-2.83-.68-3.38-2.95-5.39-6.67-5.6-10.82Z"/>
      <path d="M61.31,28.09c.01-4.38,1.71-7.39,4.38-9.96.95-.92,1.97-1.78,2.84-2.77,1.49-1.71,1.73-3.72.71-5.71-.66-1.29-1.57-2.49-2.51-3.61-1.44-1.71-1.54-3.67-.09-5.07,1.44-1.39,3.46-1.29,5.04.32,3.08,3.13,5.12,6.76,4.97,11.3-.12,3.62-1.88,6.47-4.44,8.9-.93.89-1.92,1.72-2.76,2.69-1.45,1.68-1.75,3.66-.74,5.61.75,1.46,1.82,2.76,2.85,4.05,1.64,2.05.77,5.05-1.79,5.53-.9.17-2.19-.05-2.84-.62-3.39-2.94-5.42-6.64-5.63-10.65Z"/>
    </g>
  </g>
</svg>