<?xml version="1.0" encoding="UTF-8"?>
<svg id="Layer_2" xmlns="http://www.w3.org/2000/svg" viewBox="0 0 90.46 142.46">
  <defs>
    <style>
      .cls-1 {
        stroke: #000;
        stroke-linecap: round;
        stroke-miterlimit: 10;
        stroke-width: 7px;
      }

      .cls-2 {
        fill: #fff6d2;
      }

      .cls-3 {
        fill: #fff;
      }
    </style>
  </defs>
  <g id="Layer_1-2" data-name="Layer_1">
    <polygon class="cls-2" points="83.68 58.73 72.74 139.77 17.64 140.56 7.67 59.46 83.68 58.73"/>
    <g>
      <path d="M7.06,140.56c-1.15-.68-1.99-1.56-1.55-3,.44-1.42,1.58-1.72,2.94-1.69,1.96.05,3.92.01,6.01.01-.41-3.57-.81-7-1.21-10.43-1.15-9.76-2.3-19.51-3.45-29.27-1.14-9.67-2.27-19.33-3.41-29-.22-1.91-.42-3.82-.72-5.71-.07-.44-.44-.99-.83-1.19-2.58-1.34-4.06-3.39-4.09-6.32-.03-2.93,1.4-5.01,3.95-6.41.36-.2.76-.79.73-1.17-.8-10.12,6.43-16.27,13.34-17.96,2.61-.64,4.5-1.58,6.1-4.01,3.06-4.64,8.01-6.58,13.3-7.66,3.84-.78,7.69-1.56,11.51-2.46,1.27-.3,2.49-.92,3.64-1.55,3.35-1.86,4.69-5.09,3.78-8.82-.07-.27-.25-.55-.2-.79.18-.84.23-1.82.7-2.46.62-.84,1.67-.8,2.63-.34,3.86,1.84,7.42,4.14,10.68,6.9.24.21.49.41.9.77.68-1.5,1.33-2.92,1.97-4.34,1.61-3.56,3.86-4.42,7.4-2.83,1.08.49,2.18.95,3.25,1.46,2.66,1.27,3.63,3.82,2.44,6.53-1.59,3.59-3.25,7.15-4.83,10.75-.22.49-.37,1.21-.17,1.65,3.65,8.34,4.13,16.86,1.51,25.63.46.13.89.25,1.32.38,2.75.82,4.73,3.18,4.99,5.93.28,2.98-1.17,5.67-3.86,6.98-.75.36-1.04.77-1.14,1.61-1.71,14.8-3.45,29.59-5.2,44.39-1.15,9.71-2.31,19.42-3.46,29.13-.02.13,0,.27,0,.64,2.17,0,4.34-.02,6.51,0,1.57.02,2.75,1.11,2.43,2.46-.2.82-1.03,1.48-1.58,2.21H7.06ZM71.25,135.81c2.94-24.99,5.87-49.87,8.8-74.75H10.39c2.94,24.98,5.87,49.84,8.8,74.75h52.07ZM62.36,6.59c-.12.08-.23.17-.35.25-.21,5.03-2.93,8.32-7.26,10.46-4.06,2.01-8.44,2.92-12.88,3.59-3.92.59-7.74,1.4-10.97,3.89-.68.53-1.27,1.17-2.15,2,1.06.05,1.69.07,2.32.1,5.95.29,11.21,2.38,15.82,6.13,1.38,1.12,1.64,2.42.75,3.56-.9,1.15-2.25,1.02-3.75.04-2.05-1.34-4.14-2.74-6.4-3.6-6.56-2.49-13.16-1.82-19.55.65-5.17,2-7.95,6.41-7.88,11.57.02,1.28.37,1.71,1.72,1.7,13.53-.05,27.07-.05,40.6,0,1.37,0,2.05-.34,2.64-1.66,4.69-10.55,9.48-21.06,14.21-31.6.2-.44.28-1.31.03-1.52-2.25-1.91-4.59-3.72-6.9-5.56ZM45.29,51.58c-12.12,0-24.25,0-36.37,0-.46,0-.92-.02-1.37.03-1.21.12-2.05.97-2.13,2.12-.08,1.14.64,2.15,1.8,2.43.48.11,1,.11,1.5.11,24.34,0,48.67,0,73.01,0,.63,0,1.3-.03,1.88-.25,1.06-.4,1.55-1.29,1.39-2.41-.15-1.11-.83-1.82-1.97-1.97-.5-.07-1-.04-1.51-.04-12.08,0-24.15,0-36.23,0ZM78.43,4.71c-6.37,14.1-12.68,28.05-19.06,42.18,1.45,0,2.64-.07,3.82.02,1.04.08,1.5-.34,1.92-1.27,5.66-12.62,11.37-25.22,17.07-37.83.16-.36.28-.74.45-1.19-1.4-.64-2.72-1.24-4.19-1.92ZM78.87,26.49c-3.14,6.96-6.13,13.58-9.2,20.4,2.89,0,5.49.02,8.09-.03.3,0,.78-.34.87-.63,2.08-6.43,2.23-12.9.24-19.74Z"/>
      <path class="cls-3" d="M45.29,51.58c12.08,0,24.15,0,36.23,0,.5,0,1.01-.03,1.51.04,1.14.16,1.81.87,1.97,1.97.16,1.12-.34,2-1.39,2.41-.58.22-1.25.25-1.88.25-24.34.01-48.67.01-73.01,0-.5,0-1.02,0-1.5-.11-1.16-.27-1.88-1.29-1.8-2.43.08-1.15.93-2,2.13-2.12.45-.04.91-.03,1.37-.03,12.12,0,24.25,0,36.37,0Z"/>
      <path d="M25.49,109.23c.14,2.08-.62,3.16-2.01,3.31-1.38.15-2.42-.82-2.63-2.54-.67-5.57-1.32-11.15-1.97-16.72-.41-3.49-.8-6.98-1.21-10.47-.2-1.73.48-2.88,1.87-3.13,1.41-.25,2.53.71,2.75,2.52.71,5.8,1.38,11.6,2.06,17.4.4,3.35.79,6.71,1.13,9.63Z"/>
      <path d="M21.07,71.63c.13,2.2-.61,3.24-2.01,3.36-1.41.13-2.4-.74-2.61-2.38-.19-1.45-.36-2.9-.5-4.36-.13-1.39.73-2.5,2.01-2.65,1.34-.16,2.36.59,2.6,2.04.25,1.49.39,2.99.51,3.99Z"/>
    </g>
    <line class="cls-1" x1="86.96" y1="138.96" x2="3.5" y2="138.96"/>
  </g>
</svg>