<?xml version="1.0" encoding="UTF-8"?>
<svg id="Layer_2" xmlns="http://www.w3.org/2000/svg" viewBox="0 0 90.46 142.41">
  <defs>
    <style>
      .cls-1 {
        stroke: #000;
        stroke-linecap: round;
        stroke-miterlimit: 10;
        stroke-width: 7px;
      }

      .cls-2 {
        fill: #fff;
      }

      .cls-3 {
        fill: #ff5f5f;
      }
    </style>
  </defs>
  <g id="Layer_1-2" data-name="Layer_1">
    <polygon class="cls-3" points="83.68 58.68 72.74 139.71 17.64 140.51 7.67 59.41 83.68 58.68"/>
    <g>
      <path d="M89.68,53.09c-.25-2.75-2.24-5.11-4.99-5.93-.43-.13-6.63-.35-6.93-.34-2.6.05-5.2.03-8.09.03,3.07-6.81,15.61-34.5,17.19-38.09,1.19-2.7.22-5.26-2.44-6.53-1.07-.51-2.17-.97-3.25-1.46-3.53-1.59-5.78-.73-7.4,2.83-.64,1.42-4.36,9.58-4.56,10.02-4.73,10.54-9.52,21.04-14.21,31.6-.58,1.32-1.27,1.66-2.64,1.66-13.53-.05-27.07-.05-40.6,0-1.35,0-6.72.43-7.08.62-2.55,1.4-3.98,3.49-3.95,6.41.03,2.93,1.51,4.98,4.09,6.32.39.2.76.75.83,1.19.3,1.89.5,3.81.72,5.71,1.14,9.67,2.27,19.33,3.41,29,1.15,9.76,2.3,19.51,3.45,29.27.4,3.43.8,6.87,1.21,10.43-2.09,0-4.05.04-6.01-.01-1.36-.03-2.51.27-2.94,1.69-.44,1.44.4,2.32,1.55,3h76.32c.55-.73,1.38-1.39,1.58-2.21.33-1.35-.86-2.43-2.43-2.46-2.17-.03-4.33,0-6.51,0,0-.36-.01-.5,0-.64,1.15-9.71,2.31-19.42,3.46-29.13,1.75-14.79,3.49-29.59,5.2-44.39.1-.84.39-1.25,1.14-1.61,2.69-1.31,4.13-4,3.86-6.98ZM78.43,4.66c1.47.67,2.79,1.28,4.19,1.92-.17.45-.29.83-.45,1.19-5.69,12.61-11.4,25.21-17.07,37.83-.42.93-.87,1.35-1.92,1.27-1.17-.09-2.36-.02-3.82-.02,6.39-14.13,12.69-28.08,19.06-42.18ZM71.25,135.76H19.19c-2.93-24.92-5.86-49.77-8.8-74.75h69.66c-2.93,24.88-5.86,49.77-8.8,74.75ZM83.6,55.95c-.58.22-1.25.25-1.88.25-24.34.01-48.67.01-73.01,0-.5,0-1.02,0-1.5-.11-1.16-.27-1.88-1.29-1.8-2.43.08-1.15.93-2,2.13-2.12.45-.04.91-.03,1.37-.03,12.12,0,24.25,0,36.37,0s24.15,0,36.23,0c.5,0,1.01-.03,1.51.04,1.14.16,1.81.86,1.97,1.97.16,1.12-.34,2-1.39,2.41Z"/>
      <path class="cls-2" d="M45.29,51.53c12.08,0,24.15,0,36.23,0,.5,0,1.01-.03,1.51.04,1.14.16,1.81.87,1.97,1.97.16,1.12-.34,2-1.39,2.41-.58.22-1.25.25-1.88.25-24.34.01-48.67.01-73.01,0-.5,0-1.02,0-1.5-.11-1.16-.27-1.88-1.29-1.8-2.43.08-1.15.93-2,2.13-2.12.45-.04.91-.03,1.37-.03,12.12,0,24.25,0,36.37,0Z"/>
      <path d="M25.49,109.18c.14,2.08-.62,3.16-2.01,3.31-1.38.15-2.42-.82-2.63-2.54-.67-5.57-1.32-11.15-1.97-16.72-.41-3.49-.8-6.98-1.21-10.47-.2-1.73.48-2.88,1.87-3.13,1.41-.25,2.53.71,2.75,2.52.71,5.8,1.38,11.6,2.06,17.4.4,3.35.79,6.71,1.13,9.63Z"/>
      <path d="M21.07,71.58c.13,2.2-.61,3.24-2.01,3.36-1.41.13-2.4-.74-2.61-2.38-.19-1.45-.36-2.9-.5-4.36-.13-1.39.73-2.5,2.01-2.65,1.34-.16,2.36.59,2.6,2.04.25,1.49.39,2.99.51,3.99Z"/>
    </g>
    <line class="cls-1" x1="86.96" y1="138.91" x2="3.5" y2="138.91"/>
    <g>
      <path d="M56.44,34c.25-.06.44-.11.63-.14,2.39-.37,4.46-1.4,6.18-3.11.62-.61,1.23-1.22,1.84-1.84.98-.99.98-1.74.02-2.73-.24-.25-3.24-3.45-5.13-4.22.84-2.15.91-4.29.42-6.49-.19-.86-.64-1.34-1.51-1.52-1.99-.43-3.95-.44-5.91.18-.26.08-.79-.07-.9-.27-1-1.97-2.68-3.36-4.19-4.88-.63-.63-1.44-.68-2.08-.07-1.1,1.03-2.19,2.1-3.14,3.26-1.62,1.98-2.3,4.34-2.31,6.94-.36.06-.67.1-.99.15-3.55.53-6.5,2.17-8.79,4.93-1.76,2.12-3.08,4.51-4.09,7.06-1.39,3.51-2.29,7.11-1.73,10.92.34,2.3,1.32,4.27,3.25,5.67,2.67,1.94,7.31,1.82,7.75,1.78,5.6-.58,10.55-2.71,14.86-6.32,1.74-1.46,2.92-3.32,3.72-5.43.14-.36.52-3.59,2.1-3.88ZM53.82,17.15c1.2-.38,2.4-.66,3.65-.23-.1,1.23-.19,2.45-.34,3.67-.02.2-.34.51-.54.52-1.17.07-2.35.07-3.48.1.03-1.13.04-2.3.09-3.47,0-.15.15-.32.27-.44.08-.08.23-.11.35-.15ZM46.76,12.35c3.04,2.09,4.21,6.01,2.79,9.3-.95-.49-1.88-1.06-2.87-1.46-1-.41-2.07-.67-3.21-1.03-.1-2.85,1.14-5.04,3.28-6.81ZM47.73,41.73c-3.75,2.79-7.91,4.54-12.58,4.88-5.25.38-7.82-2.18-7.41-7.42.41-5.22,2.47-9.79,5.41-13.27,4.92-5.01,12.25-4.78,16.41.03,4.1,4.72,3.24,12-1.83,15.78ZM55.34,30.84c-.87-2.12-1.68-4.09-2.5-6.08,2.71-1.46,6.47-.4,9.14,2.71-1.31,2.15-4.13,3.54-6.63,3.37Z"/>
      <path d="M39.16,28.56l-2.1-2.1,2.12-2.12,2.1,2.1-2.12,2.12Z"/>
      <path d="M43.53,32.92l-2.1-2.1,2.11-2.11,2.1,2.1-2.11,2.11Z"/>
      <path d="M47.89,37.29l-2.1-2.1,2.11-2.11,2.1,2.1-2.11,2.11Z"/>
      <path d="M36.98,30.88l2.1,2.1-2.11,2.11-2.1-2.1,2.11-2.11Z"/>
      <path d="M39.24,37.36l2.09-2.09,2.1,2.1-2.09,2.09-2.1-2.1Z"/>
      <path d="M32.67,39.52l2.08-2.08,2.12,2.12-2.08,2.08-2.12-2.12Z"/>
    </g>
  </g>
</svg>