<?xml version="1.0" encoding="UTF-8"?>
<svg id="Layer_2" xmlns="http://www.w3.org/2000/svg" viewBox="0 0 90.46 140.52">
  <defs>
    <style>
      .cls-1 {
        stroke: #000;
        stroke-linecap: round;
        stroke-miterlimit: 10;
        stroke-width: 7px;
      }

      .cls-2 {
        fill: #ffdd50;
      }
    </style>
  </defs>
  <g id="Layer_1-2" data-name="Layer_1">
    <path class="cls-2" d="M14.1,87.42s11.77-7.98,31.78,0,29.93-2.86,29.93-2.86l-2.58,46.3-8.06,8.15-45.96-.96-5.11-50.62Z"/>
    <path d="M23.88,139c-.84-.32-1.7-.56-2.5-.96-3.53-1.75-5.15-4.72-5.6-8.54-1.7-14.51-3.45-29.01-5.18-43.52-.73-6.15-1.46-12.3-2.14-18.04-1.59-.99-3.1-1.61-4.16-2.67-2.48-2.48-2.49-10.18-.04-12.69.87-.89,2.12-1.52,3.31-1.97.74-.28,1.03-.52,1.2-1.3,2.79-13.16,10.37-22.45,22.71-27.81,4.27-1.86,8.8-2.74,13.46-2.78,1.09,0,1.44-.39,1.66-1.39,1.08-4.85,2.24-9.69,3.36-14.53.57-2.45,1.63-3.14,4.09-2.66,3.19.63,6.39,1.26,9.57,1.91,2.33.48,3.1,1.68,2.56,4.01-1.18,5.11-2.37,10.21-3.58,15.31-.17.72-.22,1.19.6,1.64,10.61,5.79,17.12,14.62,19.51,26.48.05.26.13.52.22.84,2.18.19,3.99,1.08,5.22,2.95,1.45,2.2,1.47,8.92.04,11.15-.98,1.52-2.35,2.52-4.14,2.81-.77.12-1.08.4-1.17,1.17-1.18,10.06-2.38,20.12-3.57,30.18-.05.45-.11.9-.23,1.34-.37,1.38-1.64,2.23-2.95,2.04-1.38-.21-2.4-1.3-2.3-2.74.16-2.25.48-4.5.73-6.74.09-.84.18-1.69.29-2.71-1.36.31-2.57.62-3.78.86-9.18,1.84-18.05.89-26.71-2.69-8.65-3.57-17.51-3.69-26.45-1.11-.52.15-1.02.35-1.62.56.41,3.44.8,6.85,1.21,10.25,1.13,9.48,2.27,18.95,3.41,28.42.14,1.17.23,2.34.42,3.5.44,2.65,1.97,3.96,4.64,3.96,4.48.02,8.96,0,13.44,0,8.55,0,17.11,0,25.66,0,3.2,0,4.64-1.24,5.07-4.39.26-1.93,4.65-40.13,4.91-42.05.22-1.65,1.45-2.7,2.93-2.56,1.55.14,2.63,1.49,2.45,3.17-.24,2.29-4.62,40.87-5.04,43.13-.76,4.12-3.23,6.76-7.3,7.88-.26.07-.5.18-.76.27H23.88ZM44.95,24.26c-14.61-.2-28.55,11.54-30.75,26.1h24.67c2.02-8.69,4.05-17.38,6.08-26.1ZM48.05,83.58c9,3.32,17.9,3.37,26.82.34.39-.13.77-.83.84-1.3.41-2.91.74-5.83,1.08-8.75.24-2.1.47-4.2.7-6.28-.29-.08-.42-.15-.55-.15-8.1-.01-16.2-.03-24.3.01-.33,0-.87.48-.95.82-1.23,5.04-2.41,10.1-3.63,15.31ZM45.94,61.98c11.27,0,22.53.02,33.8,0,4.65,0,3.9.57,3.96-3.94.03-2.18,0-2.18-2.16-2.18-23.75,0-47.51,0-71.26,0-.32,0-.63.02-.95,0-.85-.05-1.26.34-1.25,1.2.01.9,0,1.81,0,2.71,0,2.21,0,2.21,2.16,2.21,11.9,0,23.8,0,35.7,0ZM61.03,28.1c-1.74,7.48-3.45,14.83-5.17,22.24h21.34c-1.12-8.45-7.55-17.86-16.17-22.24ZM13.88,67.48c.59,4.88,1.15,9.55,1.73,14.36,5.46-1.67,10.85-2.35,16.36-2.13.98-4.15,1.92-8.15,2.88-12.23H13.88ZM50.5,24.38c-2.05,8.78-4.04,17.34-6.06,26.03,1.74,0,3.27-.05,4.8.02.81.04,1.1-.28,1.26-1.02.46-2.16.99-4.32,1.49-6.47,1.32-5.67,2.64-11.34,4.01-17.21-1.81-.44-3.54-.87-5.5-1.35ZM37.42,80.24c1.88.45,3.65.88,5.51,1.32,1.12-4.75,2.21-9.38,3.32-14.11h-5.79c-1,4.21-2,8.41-3.04,12.78ZM51.74,19.09c1.93.46,3.67.87,5.51,1.3,1.05-4.52,2.08-8.94,3.13-13.46-1.92-.38-3.67-.73-5.54-1.1-1.04,4.48-2.06,8.82-3.09,13.27Z"/>
    <line class="cls-1" x1="86.96" y1="137.02" x2="3.5" y2="137.02"/>
    <path d="M56.23,125.77c1.28-1.85,1.2-2.37-.59-3.81-2.15-1.73-4.29-3.46-6.44-5.19.02-.08-5.17-4-6.2-4.93-1.35-1.21-14.13-11.39-17.3-13.92-1.52-1.22-2.26-1.11-3.4.47-5.44,7.54-5.8,18.13-.9,26.17,8.14,13.35,25.95,13.97,34.81,1.2ZM49.6,121.34c-2.41,1.31-4.56,2.48-6.96,3.79-.31-3.53-.57-6.63-.87-10.06,2.65,2.13,5.06,4.05,7.83,6.28ZM38.52,116.09c.28,3.23.53,6.1.79,9.08-2.15.12-4.02-.52-5.95-1.57,1.69-2.47,3.33-4.85,5.16-7.52ZM30.6,121.76c-1.12-2.14-2.1-4-3.16-6.02,2.96-.65,5.6-1.23,8.61-1.88-1.87,2.71-3.53,5.13-5.45,7.9ZM36.03,110.45c-3.04.67-5.85,1.29-8.85,1.95-.17-2.84.23-5.44,1.21-8.08,2.54,2.04,4.98,4,7.64,6.14ZM25.65,124.87c-5.21-6.56-5.82-16.03-1.51-23.24.06-.1.15-.18.29-.32,1.02.37,1.24.88.86,1.9-1.64,4.4-1.99,8.92-.74,13.48,2.82,10.28,13.06,14.78,22.56,9.91,1.36-.7,2.67-1.56,3.84-2.53.93-.76,1.52-.75,2.18.32-1.73,2.44-3.95,4.33-6.66,5.63-7.2,3.46-15.65,1.36-20.82-5.14Z"/>
  </g>
</svg>