<svg id="Layer_1" data-name="Layer 1" xmlns="http://www.w3.org/2000/svg" viewBox="0 0 477.14 477.14"><defs><style>.cls-1{fill:#f2d6ad;}.cls-2{fill:#ff9017;}.cls-3{fill:#c41414;}.cls-4{fill:#b7623f;}</style></defs><circle class="cls-1" cx="238.57" cy="238.57" r="231.57"/><path d="M281.5,521A238.66,238.66,0,0,1,70.38,171.22a240.57,240.57,0,0,1,73.06-83.38,7,7,0,0,1,8.11,11.41A225.15,225.15,0,0,0,56.93,282.43C56.93,406.26,157.67,507,281.5,507S506.07,406.26,506.07,282.43,405.33,57.86,281.5,57.86a225.1,225.1,0,0,0-58,7.56,7,7,0,0,1-3.6-13.53A238.6,238.6,0,1,1,281.5,521Z" transform="translate(-42.93 -43.86)"/><circle class="cls-2" cx="238.57" cy="238.57" r="201.54"/><path d="M281.5,491C166.51,491,73,397.42,73,282.43a208.78,208.78,0,0,1,7.15-54.33,7,7,0,0,1,13.52,3.64A194.84,194.84,0,0,0,87,282.43C87,389.7,174.23,477,281.5,477a194.45,194.45,0,0,0,161.32-85.78,7,7,0,0,1,11.6,7.84A208.46,208.46,0,0,1,281.5,491Z" transform="translate(-42.93 -43.86)"/><path d="M469.06,363.33a7.1,7.1,0,0,1-2.57-.49,7,7,0,0,1-3.94-9.08A193.64,193.64,0,0,0,476,282.43C476,175.16,388.77,87.89,281.5,87.89a195,195,0,0,0-159,82.46A7,7,0,0,1,111,162.28,209,209,0,0,1,281.5,73.89c115,0,208.54,93.55,208.54,208.54a207.57,207.57,0,0,1-14.47,76.47A7,7,0,0,1,469.06,363.33Z" transform="translate(-42.93 -43.86)"/><rect x="122.54" y="113.13" width="14" height="30.06" transform="translate(-95.37 74.97) rotate(-41.76)"/><rect x="231.57" y="7" width="14" height="30.03"/><rect x="421.61" y="124.34" width="30.03" height="14" transform="translate(-13.76 292.12) rotate(-43.41)"/><rect x="440.11" y="231.57" width="30.03" height="14"/><rect x="427.04" y="421.11" width="14" height="30.06" transform="translate(-223.18 356.85) rotate(-41.84)"/><rect x="10.46" y="232.77" width="30.19" height="14"/><path d="M232.08,142.34a7,7,0,0,1-6.53-9.52L230.5,120a7,7,0,0,1,13.07,5l-4.95,12.87A7,7,0,0,1,232.08,142.34Z" transform="translate(-42.93 -43.86)"/><path d="M234.56,252.72a7,7,0,0,1-2.35-13.6l22.28-7.92a7,7,0,0,1,4.69,13.19l-22.28,7.92A6.83,6.83,0,0,1,234.56,252.72Z" transform="translate(-42.93 -43.86)"/><path d="M129.53,257.67a7,7,0,0,1-4-1.28l-18.23-12.87a7,7,0,0,1,8.07-11.44L133.58,245a7,7,0,0,1-4.05,12.72Z" transform="translate(-42.93 -43.86)"/><path d="M361.78,158.18a7,7,0,0,1-6-3.46l-9.9-16.83a7,7,0,1,1,12.06-7.09l9.9,16.83a7,7,0,0,1-6,10.55Z" transform="translate(-42.93 -43.86)"/><path d="M356.81,300.24a7,7,0,0,1-5.66-11.11l10.39-14.35A7,7,0,1,1,372.88,283l-10.39,14.35A7,7,0,0,1,356.81,300.24Z" transform="translate(-42.93 -43.86)"/><path d="M424.63,329a7,7,0,0,1-1-13.93l19.8-3a7,7,0,0,1,2.07,13.85l-19.8,3A7.4,7.4,0,0,1,424.63,329Z" transform="translate(-42.93 -43.86)"/><path d="M346.42,448.73a6.93,6.93,0,0,1-3.52-1l-17.82-10.4a7,7,0,0,1,7.05-12.09L350,435.69a7,7,0,0,1-3.53,13Z" transform="translate(-42.93 -43.86)"/><path d="M284.16,338.35a7,7,0,0,1-7-7v-98a7,7,0,1,1,14,0v98A7,7,0,0,1,284.16,338.35Z" transform="translate(-42.93 -43.86)"/><path d="M322.67,289.43h-77a7,7,0,0,1,0-14h77a7,7,0,0,1,0,14Z" transform="translate(-42.93 -43.86)"/><path d="M283.77,515.06a7,7,0,0,1-7-7V374.41a7,7,0,0,1,14,0V508.06A7,7,0,0,1,283.77,515.06Z" transform="translate(-42.93 -43.86)"/><path d="M263.93,312.45a7,7,0,0,1-4.89-12l15.27-14.85a7,7,0,0,1,9.76,10l-15.26,14.85A7,7,0,0,1,263.93,312.45Z" transform="translate(-42.93 -43.86)"/><circle class="cls-3" cx="140.65" cy="158.8" r="39.6"/><path d="M183.58,249.25a46.6,46.6,0,1,1,46.59-46.6A46.65,46.65,0,0,1,183.58,249.25Zm0-79.2a32.6,32.6,0,1,0,32.59,32.6A32.64,32.64,0,0,0,183.58,170.05Z" transform="translate(-42.93 -43.86)"/><path d="M183.58,195.39a7,7,0,0,1-7-7V184.3a7,7,0,0,1,14,0v4.09A7,7,0,0,1,183.58,195.39Z" transform="translate(-42.93 -43.86)"/><path d="M183.58,227.74a7,7,0,0,1-7-7v-4.08a7,7,0,0,1,14,0v4.08A7,7,0,0,1,183.58,227.74Z" transform="translate(-42.93 -43.86)"/><path d="M203,208.37h-4.08a7,7,0,0,1,0-14H203a7,7,0,0,1,0,14Z" transform="translate(-42.93 -43.86)"/><path d="M168.28,208.37H164.2a7,7,0,0,1,0-14h4.08a7,7,0,0,1,0,14Z" transform="translate(-42.93 -43.86)"/><circle class="cls-3" cx="346.56" cy="171.17" r="39.6"/><path d="M389.43,261.63a46.6,46.6,0,1,1,43.3-29.23h0A46.69,46.69,0,0,1,389.43,261.63Zm.1-79.2a32.6,32.6,0,1,0,12.11,2.35A32.31,32.31,0,0,0,389.53,182.43Zm36.71,47.36h0Z" transform="translate(-42.93 -43.86)"/><path d="M394.81,208.79a6.85,6.85,0,0,1-2.61-.51,7,7,0,0,1-3.89-9.1l1.52-3.79a7,7,0,0,1,13,5.22l-1.53,3.79A7,7,0,0,1,394.81,208.79Z" transform="translate(-42.93 -43.86)"/><path d="M382.74,238.82a7,7,0,0,1-6.49-9.61l1.52-3.79a7,7,0,1,1,13,5.22l-1.52,3.79A7,7,0,0,1,382.74,238.82Z" transform="translate(-42.93 -43.86)"/><path d="M408,228.06a6.89,6.89,0,0,1-2.61-.51L401.55,226a7,7,0,1,1,5.22-13l3.79,1.52a7,7,0,0,1-2.61,13.5Z" transform="translate(-42.93 -43.86)"/><path d="M375.78,215.14a7,7,0,0,1-2.61-.51l-3.79-1.52a7,7,0,1,1,5.22-13l3.79,1.52a7,7,0,0,1-2.61,13.5Z" transform="translate(-42.93 -43.86)"/><circle class="cls-3" cx="326.27" cy="323.63" r="39.6"/><path d="M357.21,412.23a7.15,7.15,0,0,1-2.12-.33,46.6,46.6,0,1,1,58.52-30.31,7,7,0,1,1-13.34-4.24,32.6,32.6,0,1,0-40.94,21.2,7,7,0,0,1-2.12,13.68Z" transform="translate(-42.93 -43.86)"/><path d="M373.52,360.89a7,7,0,0,1-6.68-9.12l1.24-3.89a7,7,0,1,1,13.34,4.23L380.19,356A7,7,0,0,1,373.52,360.89Z" transform="translate(-42.93 -43.86)"/><path d="M363.72,391.73a7.15,7.15,0,0,1-2.12-.33,7,7,0,0,1-4.55-8.79l1.23-3.89A7,7,0,0,1,371.63,383l-1.24,3.9A7,7,0,0,1,363.72,391.73Z" transform="translate(-42.93 -43.86)"/><path d="M388.05,379.12a6.84,6.84,0,0,1-2.12-.33L382,377.56a7,7,0,0,1,4.24-13.34l3.89,1.23a7,7,0,0,1-2.12,13.67Z" transform="translate(-42.93 -43.86)"/><path d="M355,368.63a6.79,6.79,0,0,1-2.12-.33L349,367.07a7,7,0,1,1,4.24-13.35l3.89,1.24A7,7,0,0,1,355,368.63Z" transform="translate(-42.93 -43.86)"/><path d="M123.19,450.22a7,7,0,0,1-5-12l96-96a7,7,0,0,1,9.9,9.9l-96,96A7,7,0,0,1,123.19,450.22Z" transform="translate(-42.93 -43.86)"/><path d="M508.29,289.43H406.06a7,7,0,0,1,0-14H508.29a7,7,0,0,1,0,14Z" transform="translate(-42.93 -43.86)"/><path class="cls-4" d="M306.49,189.53l-24.65,4.61-4.23-23.87-11.77,2s-8.54.19-11.93-11.65c-2.06-12.12,2.46-15.66,5.92-17.61-.11.05,44.34-8.31,44.34-8.31s9.06-2.1,13.27,12c2.2,13.83-5.63,17-6.74,17.34-.09,0-8.59,1.65-8.59,1.65Z" transform="translate(-42.93 -43.86)"/><path d="M281.84,201.14a7,7,0,0,1-6.9-5.78l-3-17-4.91.84a6.91,6.91,0,0,1-1,.1c-5.16.15-15-3.28-18.82-16.72a6.43,6.43,0,0,1-.17-.76c-2-12,1-20.17,9.39-24.88a6.88,6.88,0,0,1,2.34-.82c1.73-.3,27.13-5.07,44-8.26,5.42-1.15,16.6.92,21.36,16.89a7.32,7.32,0,0,1,.21.9c2.67,16.81-6.61,23.85-11.9,25.22h0c-.31.07-.87.19-2.2.44l3.12,17a7,7,0,0,1-5.59,8.15L283.12,201A6.85,6.85,0,0,1,281.84,201.14Zm-4.22-37.87a7,7,0,0,1,6.88,5.78l3,16.91,10.84-2L295.23,167a7,7,0,0,1,5.57-8.14l7.91-1.52c1.18-.71,2.7-3.28,1.88-9-1.7-5.39-4-6.76-5.17-6.7l-43.05,8.08c-1.37,1-2.65,3-1.62,9.39,1.51,5,4,6,4.73,6.18l10.94-1.88A6.94,6.94,0,0,1,277.62,163.27Zm28-21.7-.13,0h0Zm0,0C305.58,141.6,305.61,141.6,305.63,141.58Zm.12,0Z" transform="translate(-42.93 -43.86)"/><path class="cls-4" d="M219.9,448.65l-19.53-15.73,15.39-18.73-9.19-7.63s-5.7-6.36,1.09-16.64c7.87-9.44,13.5-8.31,17.23-6.95-.1-.05,35.15,28.28,35.15,28.28s7.48,5.52-.51,17.9c-9.08,10.66-16.61,6.82-17.56,6.15-.08-.05-6.83-5.45-6.83-5.45Z" transform="translate(-42.93 -43.86)"/><path d="M219.9,455.65a7,7,0,0,1-4.39-1.54L196,438.38a7,7,0,0,1-1-9.9l11-13.35L202.1,412a6.38,6.38,0,0,1-.75-.72c-3.45-3.86-7.24-13.5.47-25.17.15-.21.3-.42.46-.62,7.81-9.38,16-12.34,25-9.05a6.92,6.92,0,0,1,2.15,1.26c1.36,1.11,21.49,17.3,34.91,28.08,4.39,3.37,10.1,13.21,1.06,27.21a6.76,6.76,0,0,1-.55.74c-11,13-22.42,10.49-26.89,7.37h0c-.26-.18-.71-.53-1.77-1.38l-10.86,13.4A7,7,0,0,1,219.9,455.65Zm-9.64-23.75,8.6,6.93,10.84-13.38a7,7,0,0,1,9.81-1.06l6.29,5c1.3.43,4.25-.08,8.1-4.45,3-4.8,2.51-7.44,1.72-8.29l-34.13-27.44c-1.65-.4-4-.08-8.19,4.87-2.71,4.26-2,6.76-1.53,7.69l8.46,7a7,7,0,0,1,.94,9.83Zm45.48-15.09h0Zm-.11-.12.13.11-.1-.09Z" transform="translate(-42.93 -43.86)"/><path class="cls-4" d="M169.16,277.08l19.69,15.54L173.64,311.5,182.9,319s5.77,6.31-.93,16.64c-7.77,9.53-13.41,8.45-17.16,7.13.11.05-35.42-27.94-35.42-27.94s-7.53-5.45.34-17.9c9-10.76,16.54-7,17.49-6.33.09.05,6.89,5.38,6.89,5.38Z" transform="translate(-42.93 -43.86)"/><path d="M169.25,350.63a20.24,20.24,0,0,1-6.78-1.23,7,7,0,0,1-2.15-1.23c-1.37-1.1-21.67-17.09-35.18-27.74-4.43-3.33-10.23-13.11-1.33-27.2a7.91,7.91,0,0,1,.54-.75c10.91-13.07,22.32-10.7,26.82-7.62h0c.26.19.72.54,1.78,1.37l10.73-13.51a7,7,0,0,1,9.82-1.14l19.68,15.54A7,7,0,0,1,194.3,297l-10.84,13.46,3.86,3.14a5.58,5.58,0,0,1,.75.71c3.5,3.82,7.38,13.43-.22,25.17a7,7,0,0,1-.45.62C181.65,347.15,175.66,350.63,169.25,350.63Zm-1.1-14.11c1.66.37,4,0,8.15-4.95,2.66-4.3,1.93-6.78,1.45-7.71l-8.52-6.93a7,7,0,0,1-1-9.82L179,293.73l-8.66-6.83-10.71,13.48a7,7,0,0,1-9.79,1.15l-6.35-5c-1.31-.42-4.25.12-8,4.53-2.94,4.83-2.44,7.46-1.64,8.3Zm-34.54-27.24.11.09,0,0A1.1,1.1,0,0,0,133.61,309.28Zm0,0C133.68,309.29,133.62,309.26,133.6,309.26Z" transform="translate(-42.93 -43.86)"/><path d="M153.63,368H134.32a7,7,0,0,1,0-14h19.31a7,7,0,0,1,0,14Z" transform="translate(-42.93 -43.86)"/></svg>