<svg width="50" height="50" viewBox="0 0 50 50" fill="none" xmlns="http://www.w3.org/2000/svg">
<path d="M49.75 25C49.75 38.669 38.669 49.75 25 49.75C11.331 49.75 0.25 38.669 0.25 25C0.25 11.331 11.331 0.25 25 0.25C38.669 0.25 49.75 11.331 49.75 25Z" fill="white" stroke="#505050" stroke-width="0.5"/>
<path d="M42.1429 28.435C42.1542 31.2507 40.199 33.7909 37.3305 34.5646C36.0925 34.8968 34.8167 35.0855 33.5523 35.3082C32.1407 35.5573 30.9064 36.131 29.8307 37.0897C28.9248 37.8937 27.9963 38.6863 27.0074 39.3808C25.66 40.3244 24.1389 40.8755 22.4781 40.9095C19.5454 40.9698 17.443 39.5544 16.3409 36.8293C15.771 35.4177 15.5332 33.9343 15.3822 32.4321C15.1973 30.6166 15.0501 28.7973 14.8085 26.9894C14.5934 25.3928 13.8536 24.0038 12.91 22.7016C12.3023 21.8637 11.7248 20.9843 11.2568 20.0595C10.4528 18.4667 10.5585 16.8664 11.4681 15.3226C12.1853 14.1073 13.076 13.0315 14.1366 12.1106C15.9861 10.5064 18.0432 10.3555 20.2399 11.2953C21.3307 11.7633 22.2441 12.4729 23.0405 13.3373C23.8822 14.2469 24.9164 14.8319 26.1355 14.9414C27.2037 15.0358 28.287 14.9905 29.3627 14.9603C30.4648 14.9263 31.5669 14.7565 32.6615 14.7866C34.628 14.8395 35.8132 15.8171 36.3529 17.7156C36.553 18.4214 36.7115 19.1386 36.8474 19.8595C37.0625 20.9956 37.6815 21.8373 38.5836 22.5355C39.297 23.0866 40.0217 23.6528 40.6256 24.3208C41.6673 25.472 42.1127 26.8912 42.1391 28.4387L42.1429 28.435ZM40.8596 28.0236C40.8332 26.9743 40.3387 25.7136 39.2705 24.7172C38.7799 24.2605 38.2363 23.8528 37.6966 23.449C36.5907 22.6148 35.9038 21.5315 35.6131 20.1765C35.4244 19.3046 35.2244 18.4327 34.9526 17.5835C34.6771 16.7305 34.0165 16.2436 33.1371 16.1077C32.6804 16.036 32.2086 16.0171 31.7443 16.0435C30.7894 16.1001 29.8383 16.2474 28.8871 16.27C27.8491 16.2926 26.7998 16.2926 25.7732 16.1643C24.3729 15.9869 23.1726 15.3264 22.1988 14.2922C21.4326 13.4807 20.5834 12.7938 19.5341 12.3786C17.828 11.7029 16.273 11.8954 14.8878 13.141C13.9781 13.96 13.2081 14.8923 12.574 15.9378C11.8493 17.1343 11.755 18.3761 12.4231 19.6066C12.876 20.4407 13.3969 21.2522 13.9706 22.0147C15.3143 23.8 16.0427 25.808 16.2616 28.0122C16.439 29.7938 16.5787 31.5791 16.7787 33.3568C16.9335 34.7156 17.2694 36.0291 17.945 37.2332C18.598 38.3995 19.5718 39.1355 20.8627 39.4638C22.5234 39.8866 24.0672 39.5356 25.5505 38.7769C26.7093 38.1843 27.7057 37.3653 28.6304 36.467C30.0609 35.0742 31.7557 34.2778 33.7259 33.9834C34.8507 33.8173 35.9792 33.6286 37.07 33.3229C39.3649 32.685 40.8596 30.6996 40.8596 28.0273V28.0236Z" fill="#505050"/>
<path d="M25.8525 21.0069C29.023 20.9993 31.616 23.5848 31.6123 26.7553C31.6123 29.9032 29.0343 32.4962 25.8865 32.5113C22.731 32.5264 20.1154 29.9296 20.104 26.7704C20.0927 23.6074 22.6782 21.0144 25.8525 21.0069V21.0069ZM25.8751 31.2393C28.3549 31.2318 30.3403 29.2238 30.3327 26.7327C30.3252 24.2566 28.3134 22.2788 25.8148 22.2864C23.3689 22.2939 21.3798 24.3208 21.3949 26.793C21.41 29.2615 23.4104 31.2506 25.8751 31.2393Z" fill="#505050"/>
<path d="M25.6712 23.5358C26.177 23.5169 26.4639 23.7169 26.4903 24.1133C26.5129 24.5096 26.2412 24.7587 25.7505 24.7889C24.7427 24.853 23.9765 25.623 23.9048 26.6421C23.8708 27.1479 23.6104 27.4121 23.1839 27.3706C22.7951 27.3328 22.5913 27.0196 22.6366 26.5289C22.7989 24.853 24.0671 23.5999 25.6712 23.5358V23.5358Z" fill="#505050"/>
</svg>
