<svg xmlns="http://www.w3.org/2000/svg" viewBox="0 0 84.27 84.18"><defs><style>.cls-1{opacity:0.98;}.cls-2{fill:#fe9738;}.cls-3,.cls-4,.cls-7{fill:none;}.cls-3,.cls-4,.cls-5,.cls-7,.cls-8,.cls-9{stroke:#000;stroke-width:2.5px;}.cls-3,.cls-4,.cls-9{stroke-linecap:round;}.cls-3,.cls-9{stroke-linejoin:round;}.cls-4,.cls-5,.cls-7,.cls-8{stroke-miterlimit:10;}.cls-5{fill:#9e5528;}.cls-6{fill:#e94444;}.cls-8{fill:#40a340;}.cls-9{fill:#fee45a;}</style></defs><g id="Layer_2" data-name="Layer 2"><g id="Layer_1-2" data-name="Layer 1"><g class="cls-1"><path class="cls-2" d="M79.09,31.6h-74a3,3,0,0,1-2.95-3h0c0-6.31,3.43-11.93,8-16.42a38.6,38.6,0,0,1,27.11-11H45A41.85,41.85,0,0,1,74,12.77c4.56,4.37,8.07,9.78,8.07,15.88h0A3,3,0,0,1,79.09,31.6Z"/><path class="cls-3" d="M70,9.41a41,41,0,0,1,4,3.36c4.56,4.37,8.07,9.78,8.07,15.88h0a3,3,0,0,1-3,3h-74a3,3,0,0,1-2.95-3h0c0-6.31,3.43-11.93,8-16.42a38.6,38.6,0,0,1,27.11-11H45A42.73,42.73,0,0,1,58.77,3.53"/><line class="cls-4" x1="52.26" y1="11.18" x2="53.57" y2="13.24"/><line class="cls-4" x1="31.84" y1="10.92" x2="30.82" y2="12.79"/><line class="cls-4" x1="42.23" y1="11.19" x2="42.23" y2="13.23"/><path class="cls-2" d="M6.91,65.59H78a0,0,0,0,1,0,0v.79A16.55,16.55,0,0,1,61.41,82.93H23.46A16.55,16.55,0,0,1,6.91,66.38v-.79A0,0,0,0,1,6.91,65.59Z"/><path class="cls-3" d="M18.06,82A16.58,16.58,0,0,1,6.91,66.38v-.79H78v.79A16.56,16.56,0,0,1,61.41,82.93H25.82"/><rect class="cls-5" x="1.25" y="31.6" width="81.77" height="12.32" rx="6.16"/><rect class="cls-6" x="1.25" y="53.26" width="81.77" height="12.32" rx="6.16"/><path class="cls-7" d="M78,53.36a6.16,6.16,0,0,1,5,6.06h0a6.16,6.16,0,0,1-6.16,6.17H7.41a6.16,6.16,0,0,1-6.16-6.17h0a6.16,6.16,0,0,1,4.92-6"/><path class="cls-8" d="M77.69,48.86v6.83A2.7,2.7,0,0,1,76.44,58h0a3.43,3.43,0,0,1-3.11.28l-2.1-.86a6.45,6.45,0,0,0-4.9,0l-3.56,1.5a6.61,6.61,0,0,1-4.89.09L53.36,57.3a6.57,6.57,0,0,0-4.8.05L45.22,59a6.9,6.9,0,0,1-5.92.07l-3.11-1.44a6.87,6.87,0,0,0-5.39-.14l-3.5,1.81a5.75,5.75,0,0,1-5.35,0L20.28,58a6.93,6.93,0,0,0-6.56-.83l-2.9,1.12A3,3,0,0,1,8.07,58h0a2.77,2.77,0,0,1-1.19-2.28V48.86"/><path class="cls-9" d="M57.37,48.86H28.11a3.5,3.5,0,0,0-3.5,3.49V64.53a4.17,4.17,0,0,1-3.95,4.2,4.09,4.09,0,0,1-4.24-4.09v-13a2.77,2.77,0,0,0-2.77-2.77H6.87v-4.8H77.69v4.8H67.49"/></g></g></g></svg>