<svg width="50" height="50" viewBox="0 0 50 50" fill="none" xmlns="http://www.w3.org/2000/svg">
<circle cx="25" cy="25" r="24.75" fill="white" stroke="#505050" stroke-width="0.5"/>
<path d="M34.0735 27.9566C34.7726 27.2575 35.4677 26.5623 36.1669 25.8632C36.9142 25.1159 37.1392 25.1038 37.8183 25.9034C40.3577 28.8848 41.093 32.284 39.8393 35.9766C38.6098 39.6048 35.9941 41.867 32.2413 42.6344C28.9746 43.3014 26.0375 42.4576 23.4941 40.2758C23.3494 40.1513 23.1204 40.0709 22.9275 40.0669C20.8341 40.0508 18.7367 40.0589 16.6433 40.0589C15.9522 40.0589 15.7795 39.87 15.7112 39.1749C15.5304 37.3306 15.3295 35.4864 15.1406 33.6421C14.9558 31.834 14.771 30.0259 14.5861 28.2218C14.3973 26.4016 14.2084 24.5815 14.0196 22.7653C13.8589 21.1943 13.6981 19.6232 13.5334 18.0522C13.3446 16.232 13.1557 14.4119 12.9669 12.5917C12.9267 12.206 12.8744 11.8203 12.8584 11.4305C12.8383 10.9966 13.0713 10.7555 13.5053 10.7193C13.6057 10.7113 13.7062 10.7153 13.8066 10.7153C20.7819 10.7153 27.7572 10.7153 34.7324 10.7153C34.8329 10.7153 34.9333 10.7153 35.0338 10.7193C35.4838 10.7555 35.7249 11.0126 35.6847 11.4626C35.6003 12.4109 35.4999 13.3591 35.4035 14.3074C35.2427 15.8784 35.078 17.4495 34.9133 19.0165C34.7204 20.8608 34.5315 22.7051 34.3387 24.5493C34.2222 25.6703 34.1097 26.7914 33.9971 27.9124C34.0253 27.9285 34.0494 27.9445 34.0775 27.9566H34.0735ZM14.7187 16.9271C15.4701 24.2118 16.2215 31.4724 16.9728 38.7369C17.0693 38.749 17.1295 38.761 17.1898 38.761C19.1345 38.761 21.0792 38.7651 23.024 38.753C23.1726 38.753 23.3574 38.6566 23.4659 38.5441C26.4071 35.6149 29.3443 32.6818 32.2734 29.7366C32.41 29.6 32.5225 29.383 32.5426 29.1941C32.7194 27.6633 32.8681 26.1284 33.0248 24.5975C33.2177 22.7533 33.4105 20.909 33.5994 19.0647C33.6717 18.3576 33.74 17.6504 33.8083 16.9271H14.7187V16.9271ZM34.3226 12.0372H14.2084C14.333 13.2266 14.4575 14.3918 14.5821 15.5851H15.1004C21.1315 15.5851 27.1665 15.5851 33.1976 15.5851C33.6931 15.5851 33.969 15.344 34.0253 14.8619C34.0293 14.8137 34.0413 14.7614 34.0494 14.7132C34.1418 13.8293 34.2302 12.9493 34.3266 12.0372H34.3226ZM39.0679 32.0188C38.9192 30.0741 38.2201 28.3905 37.0187 26.9641C35.3191 28.6638 33.6315 30.3513 31.964 32.0188H39.0719H39.0679ZM31.9761 33.3407C33.6476 35.0122 35.3311 36.6998 37.0227 38.3914C38.2161 36.9529 38.9272 35.2774 39.0719 33.3407H31.9761V33.3407ZM29.5653 41.5094V34.4095C27.8898 36.085 26.2143 37.7605 24.5227 39.4521C25.9531 40.6575 27.6326 41.3486 29.5653 41.5094ZM31.0238 34.297C30.9957 34.3171 30.9635 34.3412 30.9354 34.3613V41.5013C32.8761 41.3406 34.5597 40.6415 36.0383 39.3758C34.4231 37.7646 32.8359 36.1774 31.2528 34.5903C31.1644 34.5019 31.1002 34.3935 31.0238 34.293V34.297Z" fill="#505050"/>
<path d="M24.3822 29.4553C24.3822 30.9862 23.1527 32.2278 21.6178 32.2479C20.0909 32.268 18.8052 30.9862 18.8052 29.4553C18.8052 27.9365 20.0548 26.6829 21.5816 26.6668C23.1165 26.6508 24.3822 27.9124 24.3822 29.4594V29.4553ZM21.5816 30.938C22.4093 30.942 23.0803 30.2991 23.0924 29.4875C23.1045 28.6558 22.4334 27.9807 21.5977 27.9767C20.774 27.9767 20.115 28.6276 20.107 29.4513C20.099 30.271 20.7539 30.934 21.5776 30.938H21.5816Z" fill="#505050"/>
<path d="M27.5804 24.7543C26.2745 24.7543 25.2459 23.7217 25.254 22.4158C25.262 21.1381 26.3067 20.0934 27.5723 20.0934C28.8461 20.0934 29.9269 21.1782 29.9148 22.4479C29.8988 23.7257 28.8581 24.7543 27.5804 24.7543V24.7543ZM28.5969 22.4359C28.601 21.8573 28.159 21.4033 27.5844 21.3992C27.0138 21.3952 26.5518 21.8452 26.5478 22.4158C26.5437 22.9743 27.0098 23.4565 27.5643 23.4645C28.1228 23.4725 28.5929 23.0064 28.5969 22.4359Z" fill="#505050"/>
<path d="M22.5579 21.8773C22.5579 23.1671 21.4971 24.2198 20.2073 24.2118C18.9376 24.2038 17.897 23.1511 17.897 21.8773C17.897 20.5835 18.9417 19.5469 20.2475 19.5509C21.5252 19.5549 22.5579 20.5956 22.5579 21.8773ZM20.2475 22.9019C20.81 22.8939 21.2801 22.4158 21.2721 21.8613C21.2601 21.3068 20.7699 20.8286 20.2234 20.8367C19.6649 20.8447 19.1988 21.3269 19.2068 21.8854C19.2149 22.4559 19.681 22.91 20.2475 22.9019Z" fill="#505050"/>
</svg>
