<svg width="50" height="50" viewBox="0 0 50 50" fill="none" xmlns="http://www.w3.org/2000/svg">
<circle cx="25" cy="25" r="24.75" fill="white" stroke="#505050" stroke-width="0.5"/>
<path d="M15.9842 20.9315C15.6453 20.9315 15.3441 20.9355 15.0471 20.9315C14.5701 20.9234 14.3066 20.7025 14.2982 20.2444C14.2815 18.9909 14.2815 17.7334 14.2982 16.4798C14.3024 15.9977 14.5785 15.7687 15.1056 15.7607C15.8127 15.7526 16.5155 15.7607 17.2226 15.7607C17.3648 15.7607 17.507 15.7607 17.6744 15.7607C17.871 14.9491 18.0677 14.1616 18.2559 13.3701C18.4023 12.7675 18.553 12.6469 19.1889 12.6429C20.4691 12.6429 21.7492 12.6429 23.0336 12.6429C23.1759 12.6429 23.3181 12.6429 23.4896 12.6429C23.3976 11.984 23.3014 11.3653 23.2344 10.7465C23.2093 10.5135 23.0922 10.4372 22.8746 10.389C22.0839 10.2202 21.3016 10.0394 20.5109 9.86667C20.0214 9.75819 19.7829 9.4649 19.8666 9.08723C19.9503 8.69751 20.2892 8.49663 20.7703 8.59707C21.8287 8.81804 22.8788 9.05911 23.9331 9.29615C24.3054 9.38052 24.4519 9.64168 24.5021 9.98318C24.6067 10.7425 24.7447 11.4979 24.8117 12.2572C24.841 12.6108 24.9916 12.6509 25.3012 12.6509C27.1294 12.6389 28.9618 12.6429 30.7901 12.6469C31.4302 12.6469 31.5892 12.7715 31.7314 13.3661C31.8946 14.0371 32.0703 14.704 32.2125 15.379C32.2753 15.6683 32.384 15.7928 32.7229 15.7767C33.4132 15.7446 34.1077 15.7647 34.8022 15.7687C35.459 15.7687 35.7142 16.0098 35.7142 16.6285C35.7142 17.7856 35.7142 18.9387 35.7142 20.0958C35.7142 20.7266 35.4757 20.9475 34.8106 20.9475C34.5512 20.9475 34.2918 20.9475 34.0157 20.9475C33.8776 22.2653 33.7437 23.551 33.614 24.8327C33.4383 26.5281 33.2668 28.2276 33.0953 29.9231C32.9279 31.5704 32.7648 33.2176 32.5932 34.8649C32.4175 36.6006 32.2376 38.3362 32.0535 40.0679C32.0075 40.5018 31.79 40.6826 31.3381 40.7107C31.221 40.7187 31.1039 40.7107 30.9867 40.7107C26.9872 40.7107 22.9876 40.7107 18.9881 40.7107C18.1346 40.7107 18.0049 40.6223 17.917 39.8188C17.7288 38.1112 17.5656 36.3997 17.3899 34.6881C17.1933 32.7677 16.9925 30.8432 16.7958 28.9227C16.6243 27.2634 16.4611 25.6041 16.2938 23.9407C16.1934 22.9564 16.093 21.968 15.9842 20.9355V20.9315ZM17.3481 20.9516C17.9756 27.1188 18.599 33.2418 19.2223 39.3688H30.7692C31.3967 33.2177 32.0201 27.0946 32.6476 20.9516H17.3481ZM34.3211 17.1026H15.683V19.6217H34.3211V17.1026ZM19.511 13.9366C19.3646 14.5353 19.2265 15.1178 19.0801 15.7205H30.9198C30.7692 15.1018 30.6227 14.5192 30.4805 13.9366H19.511Z" fill="#505050"/>
<path d="M24.9873 33.8203C23.4979 33.7681 22.1383 33.4065 21.0463 32.39C19.5653 31.0119 19.6406 29.0673 21.2179 27.7817C22.4604 26.7692 23.933 26.4197 25.5228 26.5402C26.8449 26.6406 28.0414 27.0625 28.9994 27.9866C30.3382 29.2763 30.3382 31.0521 28.9994 32.3378C27.8908 33.4024 26.4976 33.7721 24.9873 33.8163V33.8203ZM21.4103 30.5458C21.5777 31.1565 21.9793 31.5583 22.4939 31.8516C23.9289 32.6712 25.435 32.7315 26.962 32.1208C27.3887 31.9521 27.7569 31.6507 28.1501 31.4137C28.1292 31.3775 28.1083 31.3414 28.0874 31.3052C27.8029 31.3333 27.5184 31.3775 27.2339 31.3856C26.2675 31.4137 25.389 31.1365 24.5564 30.6744C23.5482 30.116 22.5022 30.132 21.4145 30.5418L21.4103 30.5458ZM28.5852 29.7905C28.397 29.1155 27.9242 28.6897 27.3385 28.3883C25.845 27.629 24.3179 27.6209 22.7993 28.32C22.452 28.4807 22.155 28.7459 21.8329 28.9629C21.8496 28.991 21.8705 29.0191 21.8872 29.0513C23.1591 28.8102 24.3347 29.0312 25.4517 29.662C26.4516 30.2284 27.5059 30.1883 28.5811 29.7905H28.5852Z" fill="#505050"/>
</svg>
