<svg width="50" height="50" viewBox="0 0 50 50" fill="none" xmlns="http://www.w3.org/2000/svg">
<circle cx="25" cy="25" r="24.75" fill="white" stroke="#505050" stroke-width="0.5"/>
<path d="M26.2822 17.5169C26.2371 16.8229 26.1694 16.1714 26.1657 15.5161C26.1657 15.1245 26.2333 14.7212 26.3385 14.3451C26.7632 12.8329 28.0183 12.29 29.42 12.3559C29.8108 12.3753 30.1978 12.4916 30.5623 12.5614C30.7127 11.9178 30.8291 11.2663 31.0133 10.6382C31.2275 9.92083 31.5995 9.28879 32.1707 8.80022C32.5352 8.49002 32.8884 8.49777 33.159 8.80798C33.4183 9.10655 33.3769 9.50206 33.0425 9.82389C32.2797 10.549 32.0843 11.499 31.964 12.5614C32.2045 12.5188 32.3999 12.4916 32.5916 12.449C34.835 11.9798 36.3231 13.1857 36.3719 15.5472C36.3832 16.059 36.278 16.5708 36.2592 17.0827C36.2517 17.2261 36.3081 17.4278 36.4095 17.5169C38.6041 19.5216 40.1185 22.0149 41.306 24.7447C41.3962 24.9541 41.4225 25.2061 41.4225 25.4388C41.43 28.5486 41.43 31.6584 41.4262 34.7681C41.4262 35.4971 41.212 35.7143 40.5093 35.7143C30.1678 35.7143 19.8262 35.7143 9.48844 35.7143C8.78573 35.7143 8.57153 35.4971 8.57153 34.7681C8.57153 31.6584 8.57153 28.5486 8.57153 25.4388C8.57153 24.7873 8.65796 24.671 9.27049 24.4229C14.8809 22.1506 20.4914 19.8784 26.098 17.6061C26.1807 17.5712 26.2596 17.5325 26.2859 17.5169H26.2822ZM9.91308 29.3667H40.0734V25.8963H9.91308V29.3667ZM9.91684 34.3028H40.0659V30.8053H9.91684V34.3028ZM39.6939 24.45C38.6529 22.2669 37.3903 20.3088 35.6504 18.6725C34.587 20.27 33.1853 21.1735 31.3177 21.1929C29.435 21.2122 28.0145 20.3204 26.9323 18.75C22.2838 20.6306 17.6504 22.5035 13.017 24.3763C13.0208 24.3996 13.0283 24.4267 13.0321 24.45H39.6939ZM27.5147 15.7643C27.4058 18.4127 29.7845 20.3786 32.2684 19.6845C34.3352 19.1067 35.5039 16.9586 34.9101 14.6514C34.7899 14.1823 34.4705 13.8643 33.9932 13.8023C33.6437 13.7557 33.283 13.7557 32.9335 13.7984C32.5427 13.841 32.1557 13.9574 31.7686 14.0349C31.0509 14.1823 30.3782 13.9147 29.6905 13.7829C28.2889 13.5114 27.5035 14.1086 27.5185 15.4812C27.5185 15.5743 27.5185 15.6674 27.5185 15.7604L27.5147 15.7643Z" fill="#505050"/>
</svg>
