<svg xmlns="http://www.w3.org/2000/svg" viewBox="0 0 84.48 83.18"><defs><style>.cls-1{fill:#daeff6;}.cls-2{fill:#62beff;}.cls-3{fill:none;}.cls-3,.cls-7,.cls-8{stroke:#000;stroke-linecap:round;stroke-width:2.88px;}.cls-3,.cls-8{stroke-linejoin:round;}.cls-4{fill:#03aa6f;}.cls-5{fill:#dd2e2b;}.cls-6{fill:#ef5122;}.cls-7{fill:#40a340;stroke-miterlimit:10;}.cls-8{fill:#ffdb6f;}</style></defs><g id="Layer_2" data-name="Layer 2"><g id="Layer_1-2" data-name="Layer 1"><polygon class="cls-1" points="60.18 70.22 26.09 70.22 21.98 18.26 64.28 18.26 60.18 70.22"/><path class="cls-2" d="M23.08,32.21S34,23.29,45.49,29.43c10.23,5.28,16.89-3.29,18.26-4.36L60.18,70.22H26.09Z"/><polyline class="cls-3" points="61.62 18.26 64.28 18.26 62.19 44.73"/><polyline class="cls-3" points="24.47 49.83 21.98 18.26 54.66 18.26"/><path class="cls-3" d="M34.59,27.42a18,18,0,0,1,10.9,2c10.23,5.28,16.89-3.29,18.26-4.36L62.61,39.51"/><path class="cls-3" d="M23.57,38.44l-.49-6.23a24.15,24.15,0,0,1,5.32-3.08"/><path class="cls-4" d="M83,45.68c0,.27,0,.55,0,.82a35.65,35.65,0,0,1-36.3,34.65A35.06,35.06,0,0,1,38.38,80a32.43,32.43,0,0,0,9-4.23c.72-.48,1.42-1,2.12-1.55C61.18,65,61.66,49.48,61.61,45.94a2.17,2.17,0,0,0,0-.26Z"/><path class="cls-3" d="M80.31,59.25a35.69,35.69,0,0,1-33.58,21.9,35.27,35.27,0,0,1-7.32-.93"/><path class="cls-3" d="M61.66,45.68H83c0,.27,0,.55,0,.82,0,.85-.07,1.69-.15,2.53"/><path class="cls-5" d="M77.6,45.68v.69A30.2,30.2,0,0,1,47.39,75.73c.72-.48,1.42-1,2.12-1.55C61.18,65,61.66,49.48,61.61,45.94a2.17,2.17,0,0,0,0-.26Z"/><path class="cls-3" d="M62,45.68H77.6v.69a30.21,30.21,0,0,1-30,29.36"/><path class="cls-6" d="M39.41,64.54c-.39,8.92-3,13.4-10.43,16.69l-.14.11a3.89,3.89,0,0,1-4.2-.11,5.44,5.44,0,0,0-3.38-1.37,6.4,6.4,0,0,0-3.45,1,5.78,5.78,0,0,1-5.5.33A18.41,18.41,0,0,1,6.55,51.67c1.71-1.7,5.57-2.09,7.45-.59a7.78,7.78,0,0,0,5.15,2,7,7,0,0,0,5.62-2.27,5.44,5.44,0,0,1,7-.78A16.67,16.67,0,0,1,39.41,64.54Z"/><path class="cls-3" d="M19.32,80.16a6.32,6.32,0,0,0-1.51.71,5.78,5.78,0,0,1-5.5.33A18.41,18.41,0,0,1,6.55,51.67c1.71-1.7,5.57-2.09,7.45-.59a7.78,7.78,0,0,0,5.15,2,7,7,0,0,0,5.62-2.27,5.44,5.44,0,0,1,7-.78A16.92,16.92,0,0,1,39.3,61.85"/><path class="cls-3" d="M20.43,52.13S20.6,44.58,25.22,41"/><path class="cls-7" d="M20,51.47c-.31-2.53-2-8.8-10.7-10.31a.86.86,0,0,0-1,.88C8.41,44.6,9.71,51.2,19,52.42A.86.86,0,0,0,20,51.47Z"/><path class="cls-8" d="M49.51,74.18c-.7.55-1.4,1.07-2.12,1.55a32.43,32.43,0,0,1-9,4.23A33.11,33.11,0,0,1,13,77a.9.9,0,0,1-.45-.78V72.71a.89.89,0,0,1,.88-.9c3.65-.06,17.83-.94,28.61-10.8h0a37.1,37.1,0,0,0,10-15.32,50.26,50.26,0,0,0,1.89-7.08c.66-2.86,5.29-.49,6.8.38a1,1,0,0,1,.52.82,18.63,18.63,0,0,0,.24,4.84,8.93,8.93,0,0,1,.1,1,2.17,2.17,0,0,1,0,.26C61.66,49.48,61.18,65,49.51,74.18Z"/><ellipse cx="65.22" cy="51.81" rx="0.96" ry="1.98"/><ellipse cx="70.87" cy="53.78" rx="0.96" ry="1.98"/><ellipse cx="66.5" cy="59.25" rx="0.96" ry="1.98"/><ellipse cx="62.39" cy="65.03" rx="0.96" ry="1.98"/><polyline class="cls-3" points="45.49 29.43 56.64 4.08 70.87 1.44"/></g></g></svg>