<?xml version="1.0" encoding="UTF-8"?>
<svg id="Layer_1" xmlns="http://www.w3.org/2000/svg" viewBox="0 0 396.52 206.06">
  <defs>
    <style>
      .cls-1 {
        fill: #231f20;
      }
    </style>
  </defs>
  <path class="cls-1" d="M118.3,143.51c-1.52-1.54-4-1.51-5.48.06l-4.34,4.61c-1.38,1.47-1.38,3.75,0,5.22l4.34,4.61c1.48,1.57,3.97,1.6,5.48.06l4.55-4.61c1.46-1.48,1.46-3.86,0-5.34l-4.55-4.61Z"/>
  <path class="cls-1" d="M107.89,162.21c-1.51-1.53-3.98-1.51-5.47.04l-4.12,4.32c-1.41,1.48-1.4,3.81.02,5.28l4.12,4.25c1.48,1.53,3.92,1.55,5.42.04l4.25-4.25c1.48-1.48,1.49-3.87.02-5.36l-4.25-4.32Z"/>
  <path class="cls-1" d="M101.82,153.44c1.43-1.48,1.43-3.83,0-5.3l-4.48-4.61c-1.5-1.55-3.99-1.54-5.48.02l-4.41,4.61c-1.41,1.47-1.41,3.79,0,5.26l4.41,4.61c1.49,1.56,3.98,1.57,5.48.02l4.48-4.61Z"/>
  <path class="cls-1" d="M342.71,74.82c-4.01-6.09-9.83-11.21-17.45-15.37-7.48-4.08-16.68-7.15-27.58-9.23l1.14-5.18c-4.06.99-8.37,1.49-12.92,1.49l-1.34,1.04c-.79,2.38-1.76,4.58-2.9,6.61-1.14,2.03-2.7,4.33-4.68,6.91,13.17,1.09,24.83,3.29,34.98,6.61,10.15,3.32,18.12,7.43,23.91,12.33,5.79,4.9,8.69,10.23,8.69,15.97,0,6.34-3.37,10.94-10.1,13.81-6.74,2.87-14.8,4.31-24.21,4.31-3.2,0-6.24-.17-9.15-.49,1.29-1.19,2.52-2.43,3.65-3.74,5.15-5.99,7.72-12.85,7.72-20.57,0-4.65-.87-8.93-2.6-12.85-1.73-3.91-4.16-7.06-7.28-9.43-3.12-2.38-6.61-3.57-10.47-3.57-4.26,0-8.24,1.41-11.96,4.23-4.02,3.06-7.2,7.22-9.54,12.49-1.36,3.07-2.26,6.36-2.63,9.7-.9,8.15.88,15.42,5.34,21.78.21.3.44.58.66.88-5.68.75-11.47,1.13-17.37,1.13h-78.72c-5.05,0-8.86-.4-11.44-1.19-2.58-.79-4.38-1.95-5.42-3.49-1.04-1.53-1.56-3.64-1.56-6.31v-26.44c-3.76,1.98-7.53,3.37-11.29,4.16.39,7.63.59,14.91.59,21.84,0,2.87-1.07,5.2-3.19,6.98-2.13,1.78-6.68,3.19-13.66,4.24-6.98,1.04-17.26,1.56-30.82,1.56-14.66,0-26.49-1.19-35.5-3.57-9.01-2.38-13.52-7.03-13.52-13.96,0-3.57,1.36-7.52,4.08-11.88,1.24-1.98,1.04-5.15.21-8.14-.89-3.22-5.54-3.02-6.26.24-1.56,7.02-2.34,13.11-2.34,18.3,0,9.11,2.35,16.19,7.06,21.24,4.7,5.05,10.92,8.49,18.64,10.32,7.72,1.83,17.18,2.75,28.37,2.75,16.93,0,29.8-1.71,38.62-5.12,6.9-2.68,11.67-6.83,14.32-12.45.59,1.8,1.36,3.45,2.32,4.95,2.47,3.86,5.59,6.68,9.36,8.47,3.7,1.75,7.45,2.64,11.25,2.67.01,0,.02,0,.04,0h78.87c9.9,0,19.11-1.66,27.63-4.98.64-.25,1.25-.52,1.87-.79.72.4,1.45.79,2.21,1.16,6.29,3.07,13.29,4.6,21.02,4.6,6.63,0,12.92-1.16,18.86-3.49,5.94-2.33,10.84-5.99,14.7-10.99,3.86-5,5.79-11.31,5.79-18.94s-2.01-14.48-6.02-20.57ZM271.93,92.12c0-5.05,1.61-9.18,4.83-12.4,3.22-3.22,7.45-4.83,12.7-4.83,3.76,0,7.08.87,9.95,2.6,2.87,1.74,5.07,3.94,6.61,6.61,1.53,2.67,2.3,5.4,2.3,8.17,0,4.85-2.6,8.89-7.8,12.11-3.92,2.43-8.6,4.36-14.04,5.8-3.89-1.57-7.09-3.6-9.58-6.1-3.32-3.32-4.98-7.3-4.98-11.96Z"/>
  <path class="cls-1" d="M212.91,57.96c7.62-2.28,13.04-4.73,16.26-7.35,3.22-2.62,4.83-6.31,4.83-11.07,0-4.26-1.24-7.77-3.71-10.55-2.48-2.77-5.64-4.16-9.51-4.16-3.27,0-5.99,1.02-8.17,3.04-2.18,2.03-3.27,4.73-3.27,8.09,0,3.17.94,5.47,2.82,6.91,1.88,1.44,3.96,2.15,6.24,2.15,2.87,0,5.07-1.09,6.61-3.27,1.48-2.1,2.24-4.49,2.29-7.15,1.89,1.53,2.83,3.56,2.83,6.11,0,2.18-.82,3.89-2.45,5.12-1.63,1.24-4.43,2.4-8.39,3.49l-17.08,4.75v5.79l.74,1.04,9.95-2.97ZM224.19,37.46c-1.09.69-2.72,1.04-4.9,1.04-3.76,0-5.64-.89-5.64-2.67,0-1.09.69-1.95,2.08-2.6,1.39-.64,2.92-.97,4.6-.97,2.44,0,4.57.65,6.4,1.93-.67,1.52-1.51,2.62-2.53,3.27Z"/>
  <path class="cls-1" d="M190.71,162.96c-.88.42-1.53.69-1.95.81.66,2.78,1.1,4.74,1.31,5.86.21,1.12.32,1.92.32,2.4,0,1.04-.38,1.91-1.14,2.6-.76.69-1.75,1.2-2.96,1.53-1.21.33-2.52.5-3.92.5-1.56,0-2.96-.22-4.2-.68-1.24-.45-2.21-1.1-2.9-1.94-.69-.84-1.04-1.8-1.04-2.88,0-.82.21-1.7.62-2.63s.99-1.77,1.73-2.51c-.62-.08-1.37-.32-2.25-.72-.32,1.04-.54,2.03-.66,2.97s-.18,1.78-.18,2.52c0,2.72.78,4.81,2.34,6.28,1.56,1.46,3.73,2.19,6.52,2.19,1.88,0,3.5-.35,4.85-1.05,1.35-.7,2.37-1.69,3.06-2.97s1.04-2.79,1.04-4.53c0-.5-.01-1.06-.04-1.67-.03-.61-.06-1.12-.08-1.52-.04-.48,0-.81.13-.98.13-.17.41-.31.83-.41v-.21c-.24-.38-.5-.87-.78-1.46-.28-.59-.49-1.1-.63-1.52Z"/>
  <polygon class="cls-1" points="182.33 157.71 180.47 159.63 182.33 161.52 184.23 159.63 182.33 157.71"/>
  <path class="cls-1" d="M197.59,156.15c0-.54.07-.93.21-1.16.14-.23.42-.41.84-.53v-.21c-.24-.38-.51-.87-.8-1.47s-.5-1.1-.62-1.5c-.72.34-1.36.58-1.92.72l.6,22.76h.24l1.38-1.11.06-17.51Z"/>
  <path class="cls-1" d="M205.73,163.44c-.28.2-.61.39-.98.57-.37.18-.72.34-1.04.48.6,2.68,1,4.58,1.2,5.71s.3,1.86.3,2.22c0,.74-.29,1.5-.87,2.28-.58.78-1.53,1.55-2.85,2.3s-3.04,1.39-5.17,1.91v.24c.48.38.86.71,1.14.98s.6.64.96,1.1c2.1-.9,3.69-1.8,4.77-2.69,1.08-.89,1.83-1.94,2.25-3.14.42-1.2.63-2.8.63-4.8l-.03-2.91c0-.3.05-.53.17-.68.11-.15.33-.28.65-.38v-.21c-.24-.42-.46-.89-.66-1.4-.2-.51-.36-1.04-.48-1.58Z"/>
  <polygon class="cls-1" points="226.12 159.27 224.26 157.38 222.39 159.27 224.26 161.16 226.12 159.27"/>
  <polygon class="cls-1" points="230.14 159.27 228.25 157.38 226.42 159.27 228.25 161.16 230.14 159.27"/>
  <path class="cls-1" d="M256.28,171.93c.35-.83.53-1.8.53-2.9,0-.14-.03-.76-.09-1.86l-.06-.81c0-.3.08-.53.23-.68s.39-.27.74-.35v-.21c-.24-.38-.5-.87-.78-1.46-.28-.59-.49-1.1-.63-1.52-.66.32-1.31.56-1.95.72.86,4.6,1.29,7.12,1.29,7.54,0,.56-.2.95-.6,1.16s-1.06.32-1.98.32c-1.18,0-2.15-.16-2.9-.47-.43-.18-.81-.42-1.15-.7.23-.68.36-1.44.36-2.29v-3.99c-.68.34-1.32.58-1.92.72l.06,1.65.09,2.49c0,.54-.12.98-.34,1.31-.23.33-.6.58-1.1.74-.5.16-1.18.24-2.04.24-1.04,0-1.83-.1-2.37-.31-.54-.21-.9-.51-1.08-.9-.18-.39-.27-.91-.27-1.55v-4.38c-.68.34-1.32.58-1.92.72l.09,2.49.03,1.83c0,.72-.35,1.25-1.05,1.58-.7.33-1.88.5-3.54.5-.98,0-1.76-.09-2.33-.27-.57-.18-.98-.45-1.22-.8-.24-.35-.36-.8-.36-1.34v-5.62c-.68.34-1.32.58-1.92.72l.12,5.14c0,.78-.34,1.34-1.01,1.67-.67.33-1.87.5-3.59.5h-2.85c.09-.57.15-1.14.15-1.74,0-1.32-.22-2.57-.66-3.74-.44-1.17-1.08-2.11-1.91-2.82-.83-.71-1.82-1.07-2.96-1.07-1.02,0-1.9.27-2.64.81-.74.54-1.32,1.28-1.73,2.21s-.62,1.96-.62,3.08c0,1.28.25,2.36.75,3.23.5.87,1.19,1.53,2.06,1.98s1.87.68,2.99.68h2.98c-.45.52-1,1.02-1.67,1.5-1.13.8-2.43,1.49-3.9,2.07-1.47.58-2.95.97-4.43,1.17v.24c.48.38.86.71,1.14.98s.6.64.96,1.1c2.46-.76,4.5-1.83,6.11-3.2,1.29-1.1,2.22-2.39,2.82-3.86h3.41c1.46,0,2.73-.31,3.81-.93.97-.55,1.58-1.42,1.87-2.57.08.62.3,1.17.67,1.66.45.59,1.03,1.05,1.73,1.37.7.32,1.44.48,2.22.48,1.46,0,2.73-.31,3.81-.93.96-.55,1.56-1.4,1.86-2.53.06.57.24,1.1.54,1.57.38.6.91,1.07,1.59,1.4.68.33,1.45.5,2.31.5.98,0,1.87-.23,2.67-.68.65-.37,1.18-.88,1.61-1.52.09.17.2.33.33.5.45.59,1.04,1.07,1.76,1.44s1.47.56,2.25.56,1.52-.22,2.16-.65c.64-.43,1.14-1.06,1.49-1.89ZM212.59,170.79c-.97-.51-1.46-1.4-1.46-2.66,0-1.06.36-1.89,1.07-2.49.71-.6,1.61-.9,2.69-.9.98,0,1.86.25,2.63.75.77.5,1.38,1.2,1.82,2.1.44.9.66,1.92.66,3.06,0,.2-.01.36-.03.48-.01.16-.04.28-.05.42h-3.37c-1.66,0-2.98-.26-3.95-.77Z"/>
  <path class="cls-1" d="M264.56,163.44c-.28.2-.61.39-.98.57-.37.18-.72.34-1.04.48.6,2.68,1,4.58,1.2,5.71s.3,1.86.3,2.22c0,.74-.29,1.5-.87,2.28-.58.78-1.53,1.55-2.85,2.3s-3.04,1.39-5.17,1.91v.24c.48.38.86.71,1.14.98s.6.64.96,1.1c2.1-.9,3.69-1.8,4.77-2.69,1.08-.89,1.83-1.94,2.25-3.14.42-1.2.63-2.8.63-4.8l-.03-2.91c0-.3.05-.53.17-.68.11-.15.33-.28.65-.38v-.21c-.24-.42-.46-.89-.66-1.4-.2-.51-.36-1.04-.48-1.58Z"/>
  <path class="cls-1" d="M281.67,163.23c-.84-.7-1.83-1.05-2.97-1.05-1.02,0-1.9.27-2.64.81-.74.54-1.32,1.28-1.73,2.21s-.62,1.97-.62,3.11c0,1.24.23,2.3.71,3.17s1.08,1.52,1.82,1.95c.74.43,1.53.65,2.37.65.78,0,1.54-.17,2.28-.53.74-.35,1.39-.86,1.94-1.52.22-.26.4-.54.57-.83-.16,1.12-.64,2.16-1.47,3.11-1.03,1.18-2.38,2.16-4.05,2.94-1.67.78-3.47,1.33-5.39,1.65v.24c.48.38.86.71,1.14.98s.6.64.96,1.1c3-.92,5.36-2.33,7.07-4.22s2.57-4.27,2.57-7.13c0-1.38-.21-2.66-.65-3.83s-1.07-2.11-1.91-2.81ZM278.94,171.55c-1.24,0-2.3-.27-3.17-.8s-1.31-1.41-1.31-2.63c0-1.04.35-1.86,1.05-2.45.7-.59,1.59-.89,2.67-.89s2.02.28,2.82.84,1.41,1.27,1.83,2.13c.36.74.56,1.49.61,2.24-1.2,1.03-2.7,1.54-4.51,1.54Z"/>
  <polygon class="cls-1" points="314.35 150.17 312.49 152.09 314.35 153.98 316.21 152.09 314.35 150.17"/>
  <path class="cls-1" d="M317.47,157.35c-.82-.68-1.76-1.02-2.82-1.02-.98,0-1.85.28-2.6.83s-1.33,1.29-1.74,2.22-.62,1.95-.62,3.05c0,1.24.25,2.3.74,3.17.49.87,1.12,1.53,1.89,1.97.77.44,1.58.66,2.42.66,1.14,0,2.19-.38,3.14-1.14.57-.46,1.02-1.03,1.38-1.68-.07,1.92-.69,3.42-1.86,4.47-1.25,1.12-3.2,1.68-5.84,1.68h-3.33c-.68,0-1.27-.08-1.76-.24-.49-.16-.91-.47-1.26-.92-.35-.45-.62-1.08-.8-1.88-.24-1.04-.9-4.36-1.98-9.97-.74.24-1.49.44-2.25.6.23.76.45,1.48.65,2.16-2.19.37-3.9,1.01-5.09,1.92-1.34,1.02-2.01,2.46-2.01,4.32,0,1.14.25,2.1.74,2.87s1.13,1.34,1.91,1.71c.78.37,1.62.56,2.52.56.74,0,1.45-.14,2.13-.42s1.27-.71,1.76-1.28c.26-.3.47-.64.63-1,.44,1.31,1.02,2.32,1.76,3,.84.78,1.86,1.17,3.06,1.17,0,0,0,0,0,0h3.06c1.86,0,3.45-.38,4.76-1.16,1.31-.77,2.3-1.87,2.97-3.3.67-1.43,1.01-3.15,1.01-5.15,0-1.64-.22-3.08-.66-4.32-.44-1.24-1.07-2.2-1.89-2.88ZM301.52,169.85c-.74.19-1.54.29-2.4.29-1.34,0-2.45-.21-3.33-.63-.88-.42-1.32-1.07-1.32-1.95,0-.78.34-1.45,1.02-2s1.6-1,2.75-1.34c.93-.28,2.02-.5,3.25-.69.83,2.78,1.39,4.68,1.67,5.7-.54.26-1.08.48-1.63.62ZM317.59,165.26c-.72.29-1.54.44-2.46.44-1.26,0-2.36-.27-3.3-.81-.94-.54-1.41-1.4-1.41-2.58,0-1,.36-1.81,1.07-2.43.71-.62,1.58-.93,2.6-.93.84,0,1.66.21,2.45.63.79.42,1.45,1.09,1.97,2,.41.72.66,1.61.74,2.64-.54.48-1.09.83-1.64,1.05Z"/>
  <path class="cls-1" d="M325.26,160.14l-.02-8.86c-.44.2-.84.36-1.2.46-.36.11-.74.2-1.14.26l.93,16.55c.12,1.98.64,3.41,1.56,4.29s2.24,1.32,3.96,1.32c1.42,0,2.64-.28,3.66-.83,1.02-.55,1.79-1.28,2.31-2.19.52-.91.78-1.91.78-2.99,0-1.82-.78-3.4-2.33-4.73-1.32-1.13-3.14-2.13-5.44-3,3.22-1.89,6.73-3.89,10.56-6,.24-1.12.49-2,.75-2.64l-.12-.21c-6,3.53-10.75,6.38-14.28,8.56ZM334.21,165.65c.77.67,1.16,1.42,1.16,2.24,0,1.06-.51,1.94-1.53,2.63-1.02.69-2.53,1.04-4.53,1.04-.88,0-1.61-.09-2.19-.29-.58-.19-1.03-.52-1.35-.99s-.48-1.13-.48-1.97v-6.1c2.16.51,3.99,1.03,5.42,1.56,1.57.58,2.74,1.21,3.51,1.88Z"/>
</svg>