<?xml version="1.0" encoding="UTF-8"?>
<svg id="Layer_1" xmlns="http://www.w3.org/2000/svg" viewBox="0 0 392.83 156.02">
  <defs>
    <style>
      .cls-1 {
        fill: #231f20;
      }
    </style>
  </defs>
  <g>
    <path class="cls-1" d="M46.69,73.78v-31.49c0-8.92-.44-16.52-.77-22.79h13.98c-.33,6.28-.77,13.87-.77,22.79v10.35c0,2.75,2.75,2.75,5.06,2.75h29.18c2.31,0,5.07,0,5.07-2.75v-10.35c0-8.92-.44-16.52-.77-22.79h13.98c-.33,6.28-.77,13.87-.77,22.79v31.49c0,8.92.44,16.52.77,22.79h-13.98c.33-6.28.77-13.87.77-22.79v-9.14c0-2.75-2.75-2.75-5.07-2.75h-29.18c-2.31,0-5.06,0-5.06,2.75v9.14c0,8.92.44,16.52.77,22.79h-13.98c.33-6.28.77-13.87.77-22.79Z"/>
    <path class="cls-1" d="M128.72,58.47c0-22.13,15.75-40.74,39.86-40.74s39.64,17.07,39.64,39.75-15.64,40.85-39.64,40.85-39.86-17.18-39.86-39.86ZM172.43,91.4c10.13,0,23.89-6.72,23.89-27.97,0-22.35-15.64-38.76-31.71-38.76-10.24,0-23.78,6.72-23.78,27.75,0,22.57,15.63,38.98,31.6,38.98Z"/>
    <path class="cls-1" d="M225.95,73.78v-31.49c0-8.92-.33-16.52-.66-22.79,9.58.33,14.86-.22,24.88-.22,16.85,0,30.83,6.28,30.83,23.56,0,19.71-18.39,27.75-42.61,24.11v6.83c0,8.92.55,16.52.77,22.79h-13.87c.33-6.28.66-13.87.66-22.79ZM267.68,45.37c0-13.76-8.81-20.59-20.59-20.59-6.72,0-8.7,1.54-8.7,6.61v30.28c19.05,2.75,29.29-1.54,29.29-16.3Z"/>
    <path class="cls-1" d="M323.95,96.24c-7.27,0-16.3,0-25.88.33.33-6.28.66-13.87.66-22.79v-31.49c0-8.92-.33-16.52-.66-22.79,9.58.33,18.5.33,25.21.33s14.2,0,23.01-.55c1.1-.11,1.32.22,1.1,1.21l-1.43,5.73c-.11.55-.44.66-1.65.55-10.24-.88-18.83-1.43-27.2-1.43-3.74,0-5.51,1.21-5.62,4.18-.22,4.73-.33,8.92-.33,13.32v8.37c0,2.86,1.43,3.41,3.63,3.41h1.98c9.69,0,14.86-.11,21.03-.88.88-.11,1.32.44.88,1.43l-1.87,4.84c-.55,1.21-.99,1.21-2.42,1.1-4.18-.33-11.78-.77-18.61-.77h-.99c-2.2,0-3.63.55-3.63,3.41v9.36c0,4.4,0,8.48.33,13.21.22,2.97,1.87,4.18,5.62,4.18,8.92,0,19.16-.66,29.4-1.54,1.21-.11,1.76,0,1.65.55l-1.32,6.06c-.22.99-.22,1.32-1.1,1.21-8.81-.55-14.97-.55-21.8-.55Z"/>
  </g>
  <g>
    <path class="cls-1" d="M44.65,129.35c0-4.46,3.15-9.46,9.76-9.46,2.85,0,5.18.93,5,1.48l-.5,1.48c-.55,1.65-.65-1.2-6.01-1.2-3.75,0-5.86,2.35-5.86,6.26,0,5.58,4.28,8.26,8.18,8.26.42,0,2.38-.38,4.05-1.43.2-.12.65.35.5.58-1.08,1.55-4.33,2.9-5.01,2.9-5.23,0-10.13-3.23-10.13-8.86Z"/>
    <path class="cls-1" d="M62.07,135.16c0-1.13.55-1.98,2.65-2.63l3.75-1.2c.73-.22.95-.25.95-.83v-1.25c0-1.6-.88-1.73-1.78-1.73-1.3,0-3,.3-3.93.43-.2.02-.33-.12-.35-.25l-.05-.4c-.08-.55,3.58-1.58,5.43-1.58,2.7,0,2.88,2.08,2.88,4v4.23c0,2.3.25,3.28.38,3.85.03.1-.15.15-.5.15h-.75c-.53,0-.83-.6-1.35-1.48-2.6,1.48-3.18,1.73-3.93,1.73-1.65,0-3.4-1.03-3.4-3.05ZM66.37,136.59c1.6,0,3.05-1.13,3.05-2.45v-2c-.18.12-.28.18-.6.28l-2.75.93c-1.15.4-1.55.75-1.55,1.53,0,1.1.68,1.73,1.85,1.73ZM67.85,120.02c.45-.65,2.43,1.13,1.83,1.6l-3.33,2.53c-.33.25-1.1-.4-.85-.75l2.35-3.38Z"/>
    <path class="cls-1" d="M76.43,133.58v-4.73c0-.95-.38-1.3-1.8-1.3-.48,0-.17-1.38,0-1.38h1.1c.5,0,.73-.1.73-.6v-.75c0-3.45,2.75-6.21,5.63-6.21.4,0,1.2.73,1.13,1.08-.22,1.05-.53,1.78-.85,1.78-.15,0-.83-.63-2.05-.63-.8,0-1.65.28-1.65,2.2v2.3c0,.62.42.88,1.03.88.88,0,1.7,0,2.55-.05.63-.02.38,1.88-.45,1.78-2.73-.38-3.13-.15-3.13.9v4.73c0,1.73.07,3.15.12,4.23h-2.45c.08-1.08.1-2.5.1-4.23Z"/>
    <path class="cls-1" d="M83.96,132.28c0-2.88,1.7-6.56,6.23-6.56,3.75,0,4.2,2.65,4.2,3.75,0,.65-.18,1.48-.35,2l-7.88.22c.4,3.35,3.23,4.73,5.11,4.73.22,0,1.3-.12,2.85-.48.22-.05.38.58.2.68-1,.58-3.08,1.58-3.5,1.58-2.88,0-6.86-1.53-6.86-5.93ZM92.2,130.36c.25-1.15-.15-3.2-2.85-3.2-2.15,0-3.13,1.4-3.23,3.4l6.08-.2Z"/>
    <path class="cls-1" d="M112.27,134.76c-1.03,1.4-3.33,3.45-4.85,3.45-1.7,0-5.76-1.93-5.76-5,0-2.23,2.05-4.3,5.03-4.73-.93-1.4-1.48-2.7-1.48-3.63,0-1.58,1.43-4.95,5.81-4.95,1.83,0,3.63.55,3.18,1.25l-.58.95c-1.15,1.85-1.53-.6-4.05-.6-1.85,0-2.23,1.33-2.23,2.03,0,3.38,8.83,13.16,12.89,13.16.22,0,.65.65-.93,1.43-.23.1-.48.18-.78.18-1.53,0-3.93-1.5-6.26-3.53ZM108.16,136.56c1.73,0,2.9-2.28,1.75-4.05-.85-.9-1.68-1.85-2.35-2.8-2.7.2-3.5,1.13-3.5,2.6,0,2.53,2.35,4.25,4.1,4.25ZM117.45,128c.67,0,1.25.33,1.25.88,0,.48-.48.85-1.53,1.55-.33.22-.7.12-.93-.03-1.2-.68-2.28-1.15-3.18-1.15-1.35,0,.9-1.25,4.38-1.25Z"/>
    <path class="cls-1" d="M129.48,132.63v-7.16c0-2.03-.08-3.75-.15-5.18,2.03.07,3.08-.05,5.31-.05,3.48,0,6.13,1.48,6.13,4.63,0,2.9-2.3,4.33-4.35,4.55.7.5,1.58,1.5,2.45,2.53l2.53,2.98c1.15,1.38,1.8,2.13,2.55,2.88h-3.18l-4.5-5.71c-1.6-2-2.3-2.2-4.38-2.2v2.73c0,2.03.12,3.75.18,5.18h-2.73c.08-1.43.15-3.15.15-5.18ZM132.71,128.85c3.78,0,5.5-.65,5.5-3.35s-1.85-4.1-4.25-4.1c-1.53,0-2.08.38-2.08,1.53v5.93h.83Z"/>
    <path class="cls-1" d="M145.45,132.28c0-2.88,1.7-6.56,6.23-6.56,3.75,0,4.2,2.65,4.2,3.75,0,.65-.18,1.48-.35,2l-7.88.22c.4,3.35,3.23,4.73,5.11,4.73.22,0,1.3-.12,2.85-.48.23-.05.38.58.2.68-1,.58-3.08,1.58-3.5,1.58-2.88,0-6.86-1.53-6.86-5.93ZM153.68,130.36c.25-1.15-.15-3.2-2.85-3.2-2.15,0-3.13,1.4-3.23,3.4l6.08-.2Z"/>
    <path class="cls-1" d="M158.41,136.64l.25-.7c.63-1.85,1.68.88,4.6.88,2.65,0,2.85-1.88.63-3l-3.15-1.55c-3.75-1.85-2.48-6.53,2.18-6.53,1.83,0,3.7.75,3.4,1.48l-.25.7c-.65,1.78-1.48-.78-4.05-.78-2.1,0-2.45,1.85-.35,2.88l3.23,1.6c3.88,1.93,2.63,6.61-2.65,6.61-1.95,0-4.08-.8-3.83-1.58Z"/>
    <path class="cls-1" d="M171.23,136.54v-8.36c0-.48-.38-.48-2.08-.48-.45,0-.2-1.38.03-1.38h1.63c.48,0,.3-.42.3-2.5l2.23-.6c.2-.05.33,0,.3.2-.05.55-.17,2.03-.17,2.58,0,.3.22.33.65.33,1.3,0,2.45-.08,3.33-.15.23-.02.33,0,.33.3,0,.6-.38,1.43-.78,1.4l-.8-.05c-2.6-.18-2.78-.13-2.78.35v6.91c0,1.03.75,1.28,1.55,1.28.73,0,1.93-.12,2.68-.2.23-.03.35.6.12.7-1.38.6-2.28.88-4.43,1.35-.93,0-2.1-.95-2.1-1.68Z"/>
    <path class="cls-1" d="M181.01,134.81v-4.18c0-1.83-.08-3.28-.12-4.15l2.25-.6c.2-.05.33-.03.3.2-.1.9-.23,2.5-.23,4.55v3.55c0,1.73.85,2.3,2.05,2.3,1.4,0,3.75-.43,3.75-1.85v-4c0-1.83-.08-3.28-.12-4.15l2.23-.6c.22-.05.33-.03.3.2-.1.9-.22,2.5-.22,4.55v2.95c0,1.9.08,3.1.17,4.23h-1.88c-.25-.8-.38-1.33-1.03-.95-1.05.55-2.78,1.35-4.38,1.35-2.5,0-3.08-1.85-3.08-3.4Z"/>
    <path class="cls-1" d="M195.8,133.58v-3.93c0-1.3-.08-2.38-.12-3.25l2.13-.63c.2-.05.28.05.28.28,0,.78.03,1.68.7,1.28.98-.6,2.35-1.6,3.18-1.6.35,0,1.18.73,1.1,1.08-.25,1.15-.53,1.9-.85,1.9-.12,0-.88-.6-2.1-.6-.93,0-2.1.28-2.1,1.63v3.85c0,1.9.08,3.35.12,4.23h-2.43c.08-1.08.1-3,.1-4.23Z"/>
    <path class="cls-1" d="M204.56,135.16c0-1.13.55-1.98,2.65-2.63l3.75-1.2c.73-.22.95-.25.95-.83v-1.25c0-1.6-.88-1.73-1.78-1.73-1.3,0-3,.3-3.93.43-.2.02-.33-.12-.35-.25l-.05-.4c-.07-.55,3.58-1.58,5.43-1.58,2.7,0,2.88,2.08,2.88,4v4.23c0,2.3.25,3.28.38,3.85.03.1-.15.15-.5.15h-.75c-.53,0-.83-.6-1.35-1.48-2.6,1.48-3.18,1.73-3.93,1.73-1.65,0-3.4-1.03-3.4-3.05ZM208.86,136.59c1.6,0,3.05-1.13,3.05-2.45v-2c-.17.12-.28.18-.6.28l-2.75.93c-1.15.4-1.55.75-1.55,1.53,0,1.1.68,1.73,1.85,1.73Z"/>
    <path class="cls-1" d="M218.37,133.58v-3.63c0-1.45-.08-2.68-.12-3.55l2.13-.63c.2-.05.28.05.28.28,0,.78.18,1.03.6.85,1.18-.47,2.38-1.18,3.9-1.18,2.4,0,3.35,1.88,3.35,3.6v4.25c0,1.9.08,3.35.12,4.23h-2.43c.08-1.08.12-3,.12-4.23v-3.48c0-2.1-1.35-2.5-2.8-2.5-1.2,0-2.95.33-2.95.98v5c0,1.9.08,3.35.12,4.23h-2.43c.08-1.08.1-3,.1-4.23Z"/>
    <path class="cls-1" d="M233.46,136.54v-8.36c0-.48-.38-.48-2.08-.48-.45,0-.2-1.38.03-1.38h1.63c.48,0,.3-.42.3-2.5l2.23-.6c.2-.05.33,0,.3.2-.05.55-.17,2.03-.17,2.58,0,.3.22.33.65.33,1.3,0,2.45-.08,3.33-.15.23-.02.33,0,.33.3,0,.6-.38,1.43-.78,1.4l-.8-.05c-2.6-.18-2.78-.13-2.78.35v6.91c0,1.03.75,1.28,1.55,1.28.73,0,1.93-.12,2.68-.2.23-.03.35.6.12.7-1.38.6-2.28.88-4.43,1.35-.93,0-2.1-.95-2.1-1.68Z"/>
  </g>
</svg>