<?xml version="1.0" encoding="UTF-8"?>
<svg id="Layer_1" xmlns="http://www.w3.org/2000/svg" viewBox="0 0 636.65 297.17">
  <defs>
    <style>
      .cls-1 {
        fill: #231f20;
      }
    </style>
  </defs>
  <path class="cls-1" d="M67.51,257c22.04-5.51,31.49-18.9,31.49-91.33v-34.18c0-72.43-9.44-85.81-31.49-91.33v-8.66h88.99v86.39c0,10.38,8.41,18.79,18.79,18.79h286.69c10.38,0,18.79-8.41,18.79-18.79V31.51h88.39v8.66c-22.04,5.51-31.49,18.9-31.49,91.33v34.18c0,72.43,9.44,85.81,31.49,91.33v8.66h-88.39v-85.59c0-10.38-8.41-18.79-18.79-18.79H175.29c-10.38,0-18.79,8.41-18.79,18.79v85.59h-88.99v-8.66Z"/>
</svg>