<svg width="50" height="50" viewBox="0 0 50 50" fill="none" xmlns="http://www.w3.org/2000/svg">
<circle cx="25" cy="25" r="24.75" fill="white" stroke="#505050" stroke-width="0.5"/>
<path d="M18.6838 34.4322C17.7617 33.4997 17.0282 32.5314 16.3975 31.4737C14.9818 29.0834 14.1043 26.4822 13.6861 23.7238C13.4701 22.2981 13.4119 20.8439 13.309 19.3968C13.2645 18.7822 13.4838 18.5714 14.07 18.5714C21.1758 18.5714 28.2851 18.5714 35.3909 18.5714C35.9702 18.5714 36.1656 18.7929 36.1553 19.4039C36.1519 19.6826 36.1553 19.9578 36.1553 20.19C36.7003 20.1078 37.2659 19.9578 37.8315 19.9506C39.2575 19.9256 40.3338 20.851 40.5909 22.3088C40.968 24.4241 40.4572 26.3643 39.3775 28.1472C37.9206 30.559 35.7611 31.8953 33.1114 32.3956C32.6144 32.4885 32.2339 32.6385 31.9357 33.0959C31.6238 33.5675 31.2124 33.9642 30.8114 34.4358C30.9622 34.4358 31.0685 34.4358 31.1747 34.4358C32.9572 34.4358 34.7396 34.4537 36.5221 34.4251C37.1528 34.4144 37.3756 34.7931 37.2968 35.3684C37.026 37.3407 35.6686 38.5663 33.7147 38.5698C30.0058 38.5734 26.297 38.5698 22.5847 38.5698C20.3017 38.5698 18.0188 38.5734 15.7325 38.5698C14.0631 38.5663 12.788 37.6444 12.315 36.1008C12.2293 35.815 12.1813 35.5149 12.1504 35.2183C12.0956 34.7002 12.3389 34.4358 12.8428 34.4358C14.6356 34.4358 16.4283 34.4358 18.2245 34.4358H18.6838V34.4322ZM14.4745 19.8077C14.471 19.8934 14.4608 19.9613 14.4642 20.0292C14.5259 20.826 14.5704 21.6264 14.6596 22.4196C14.9372 24.8529 15.5577 27.1896 16.5997 29.3906C17.4841 31.2665 18.6255 32.9387 20.2366 34.2214C20.3874 34.3429 20.6137 34.4215 20.8056 34.4215C23.3696 34.4358 25.9302 34.4215 28.4942 34.4394C28.8507 34.4394 29.1249 34.3393 29.3991 34.1035C31.0616 32.6778 32.2305 30.877 33.1114 28.8547C34.1432 26.4893 34.6917 23.9917 34.9213 21.412C34.9693 20.8832 34.9796 20.3544 35.0104 19.8041H14.4813L14.4745 19.8077ZM13.3981 35.6328C13.6381 36.6368 14.5156 37.3621 15.4891 37.3621C21.6454 37.3657 27.8018 37.3693 33.9581 37.3621C34.887 37.3621 35.552 36.8583 35.9634 35.9901C36.0114 35.8865 36.0353 35.765 36.0765 35.6363H13.3981V35.6328ZM33.2931 31.0914C33.3102 31.1236 33.3274 31.1522 33.3411 31.1843C33.9615 30.9485 34.5991 30.752 35.1955 30.4661C37.9789 29.137 39.7031 26.1642 39.5386 23.0342C39.4803 21.9622 39.021 21.3334 38.1263 21.1619C37.4133 21.0261 36.7655 21.2905 36.1485 21.6264C36.0765 21.6657 36.0353 21.8158 36.0216 21.9194C35.9565 22.3553 35.9188 22.7912 35.8537 23.2271C35.4663 25.8819 34.7054 28.408 33.4576 30.7627C33.3994 30.8699 33.348 30.9806 33.2931 31.0914V31.0914Z" fill="#505050"/>
<path d="M20.6263 13.5247C20.6263 12.721 20.6229 11.9173 20.6263 11.1135C20.6263 10.7719 20.8071 10.5375 21.0817 10.4906C21.4467 10.427 21.7448 10.6547 21.7482 11.0566C21.7582 12.6976 21.7582 14.3352 21.7482 15.9761C21.7482 16.3311 21.4802 16.5655 21.1721 16.5521C20.864 16.5387 20.6296 16.2909 20.6263 15.9359C20.6196 15.1322 20.6263 14.3285 20.6263 13.5247Z" fill="#505050"/>
<path d="M28.252 13.5147C28.252 14.295 28.252 15.0786 28.252 15.8589C28.252 16.2809 28.0243 16.5521 27.6827 16.5488C27.3512 16.5488 27.1301 16.2976 27.1268 15.8824C27.1234 14.2983 27.1234 12.7109 27.1268 11.1269C27.1268 10.7049 27.3378 10.4772 27.6894 10.4806C28.0343 10.4806 28.2487 10.725 28.2487 11.137C28.252 11.9306 28.2487 12.721 28.2487 13.5147H28.252Z" fill="#505050"/>
<path d="M23.8848 11.5958C23.8848 10.8021 23.8848 10.0084 23.8848 9.21136C23.8848 8.81953 24.0924 8.58176 24.4273 8.57171C24.7756 8.56167 24.9966 8.80279 24.9966 9.21136C24.9966 10.8121 24.9966 12.4096 24.9966 14.0103C24.9966 14.3854 24.7588 14.6466 24.4407 14.6433C24.1226 14.6433 23.8881 14.3821 23.8848 14.007C23.8814 13.2032 23.8848 12.3962 23.8848 11.5924V11.5958Z" fill="#505050"/>
</svg>
