<svg xmlns="http://www.w3.org/2000/svg" viewBox="0 0 84.22 84.22"><defs><style>.cls-1{fill:#fc4e51;}.cls-2{fill:none;}.cls-2,.cls-3,.cls-4,.cls-5{stroke:#000;stroke-width:2.5px;}.cls-2,.cls-5{stroke-miterlimit:10;}.cls-3{fill:#fd8f31;}.cls-3,.cls-4,.cls-5{stroke-linecap:round;}.cls-3,.cls-4{stroke-linejoin:round;}.cls-4{fill:#f5cf88;}.cls-5{fill:#f19846;}</style></defs><g id="Layer_2" data-name="Layer 2"><g id="Layer_1-2" data-name="Layer 1"><rect class="cls-1" x="-11.45" y="31.92" width="107.13" height="20.38" rx="10.19" transform="translate(-17.44 42.11) rotate(-45)"/><rect class="cls-2" x="-11.45" y="31.92" width="107.13" height="20.38" rx="10.19" transform="translate(-17.44 42.11) rotate(-45)"/><path class="cls-3" d="M2.71,46.57A11.68,11.68,0,0,0,5,59.91l.08.09a3,3,0,0,0,4.16,0L59.67,9.54a2.94,2.94,0,0,0,0-4.16l-.09-.08a11.68,11.68,0,0,0-16.52,0l-3,3"/><line class="cls-4" x1="40.04" y1="8.32" x2="7.47" y2="40.89"/><path class="cls-3" d="M64.26,55.4,40.94,78.72a11.68,11.68,0,0,1-16.52,0l-.09-.08a3,3,0,0,1,0-4.16L74.79,24A3,3,0,0,1,79,24l.08.09a11.68,11.68,0,0,1,0,16.52l-4.71,4.71"/><path class="cls-5" d="M72.32,19.55,64.94,21.1A3.69,3.69,0,0,0,62,23.92l-.8,3.16a7.89,7.89,0,0,1-6.48,6l-1.19.22a5.67,5.67,0,0,0-4.69,4.46l-.44,1.86a7,7,0,0,1-5.8,5.51h0a6.75,6.75,0,0,0-5.53,5l-.2.74a8,8,0,0,1-6.07,5.82L29.73,57A5,5,0,0,0,26,60.28l-1.88,5.46A5.75,5.75,0,0,1,22.68,68l-1.19,1.16c-.83.8-2.42.49-3.55-.68h0c-1.13-1.18-1.38-2.77-.55-3.57l1.76-1.7a2.63,2.63,0,0,0,.68-1.11l1.4-4.43A7.68,7.68,0,0,1,27,52.4l1.32-.3a5,5,0,0,0,3.88-4l.14-.64a8.65,8.65,0,0,1,7.42-6.93h0a5.07,5.07,0,0,0,4.32-3.89l.7-2.77a6.08,6.08,0,0,1,5-4.65l1.77-.34a6.43,6.43,0,0,0,5.17-4.6l1-3.37a6.26,6.26,0,0,1,4.87-4.45l5.38-1.13a6,6,0,0,0,1.48-.5,2.92,2.92,0,0,1,3.19.94h0l.13.15C73.84,17.53,73.55,19.21,72.32,19.55Z"/></g></g></svg>