<svg xmlns="http://www.w3.org/2000/svg" viewBox="0 0 83.98 75.53"><defs><style>.cls-1{fill:#bc8f5b;}.cls-2,.cls-3{fill:none;}.cls-2,.cls-3,.cls-5{stroke:#000;stroke-miterlimit:10;stroke-width:2.5px;}.cls-2,.cls-5{stroke-linecap:round;}.cls-4,.cls-5{fill:#faf9dc;}.cls-6{fill:#f5b22f;}.cls-7{fill:#e94e2b;}</style></defs><g id="Layer_2" data-name="Layer 2"><g id="Layer_1-2" data-name="Layer 1"><path class="cls-1" d="M79.09,51.27C73.75,62,62.93,70.55,49.27,73.34,27.14,77.87,5.93,65.62,1.91,46S12.58,6.72,34.71,2.19,78.05,9.92,82.07,29.57a32.53,32.53,0,0,1,.06,12.74"/><path class="cls-2" d="M79.09,51.27C73.75,62,62.93,70.55,49.27,73.34,27.14,77.87,5.93,65.62,1.91,46S12.58,6.72,34.71,2.19,78.05,9.92,82.07,29.57a32.53,32.53,0,0,1,.06,12.74"/><line class="cls-3" x1="10.33" y1="40.12" x2="1.79" y2="45.32"/><line class="cls-3" x1="65.08" y1="6.76" x2="18.46" y2="35.16"/><line class="cls-3" x1="13.37" y1="64.92" x2="81.49" y2="27.21"/><circle class="cls-3" cx="49.41" cy="22.92" r="5.12"/><circle class="cls-3" cx="15.45" cy="38.56" r="5.12"/><path class="cls-4" d="M56.22,29.25a6.48,6.48,0,0,1,6-3.41c3.55.35,6.06,4.29,5.62,8.8s-3.69,7.87-7.24,7.52c-2.35-.23-4.37-2.51-5.26-5"/><path class="cls-2" d="M56.22,29.25a6.48,6.48,0,0,1,6-3.41c3.55.35,6.06,4.29,5.62,8.8s-3.69,7.87-7.24,7.52c-2.35-.23-4.37-2.51-5.26-5"/><path class="cls-5" d="M55.39,37.15l-5.13-.51a1.11,1.11,0,0,1-1-1.19l.57-5.75a1.12,1.12,0,0,1,1.24-1l5.18.51"/><path class="cls-4" d="M14.83,52.26a6.49,6.49,0,0,1-.31-6.93c1.93-3,6.58-3.46,10.39-1s5.35,6.86,3.43,9.86c-1.28,2-4.23,2.76-6.86,2.41"/><path class="cls-2" d="M14.83,52.26a6.49,6.49,0,0,1-.31-6.93c1.93-3,6.58-3.46,10.39-1s5.35,6.86,3.43,9.86c-1.28,2-4.23,2.76-6.86,2.41"/><path class="cls-5" d="M21.49,56.59l-2.78,4.33a1.1,1.1,0,0,1-1.53.38l-4.87-3.11A1.12,1.12,0,0,1,12,56.64l2.81-4.38"/><rect class="cls-6" x="21.91" y="30.12" width="10.22" height="7.66" rx="2.94" transform="translate(-11.32 13.64) rotate(-23.57)"/><rect class="cls-3" x="21.91" y="30.12" width="10.22" height="7.66" rx="2.94" transform="translate(-11.32 13.64) rotate(-23.57)"/><rect class="cls-6" x="39.9" y="31.67" width="7.66" height="10.22" rx="2.94" transform="translate(-9.83 56.7) rotate(-60.47)"/><rect class="cls-3" x="39.9" y="31.67" width="7.66" height="10.22" rx="2.94" transform="translate(-9.83 56.7) rotate(-60.47)"/><rect class="cls-6" x="55.82" y="18.44" width="7.66" height="10.22" rx="2.94" transform="translate(9.76 63.84) rotate(-60.47)"/><rect class="cls-3" x="55.82" y="18.44" width="7.66" height="10.22" rx="2.94" transform="translate(9.76 63.84) rotate(-60.47)"/><rect class="cls-6" x="59.74" y="10.98" width="10.22" height="7.66" rx="2.94" transform="translate(20 63.94) rotate(-60.47)"/><rect class="cls-3" x="59.74" y="10.98" width="10.22" height="7.66" rx="2.94" transform="translate(20 63.94) rotate(-60.47)"/><rect class="cls-6" x="3.41" y="45.28" width="10.22" height="7.66" rx="2.94" transform="translate(-38.41 32.32) rotate(-60.47)"/><rect class="cls-3" x="3.41" y="45.28" width="10.22" height="7.66" rx="2.94" transform="translate(-38.41 32.32) rotate(-60.47)"/><rect class="cls-7" x="32.73" y="19.64" width="11.34" height="12.79" rx="1.85" transform="translate(-3.38 5.86) rotate(-8.36)"/><rect class="cls-3" x="32.73" y="19.64" width="11.34" height="12.79" rx="1.85" transform="translate(-3.38 5.86) rotate(-8.36)"/><rect class="cls-7" x="28.62" y="38.42" width="11.34" height="12.79" rx="1.85" transform="translate(-6.15 5.46) rotate(-8.36)"/><rect class="cls-3" x="28.62" y="38.42" width="11.34" height="12.79" rx="1.85" transform="translate(-6.15 5.46) rotate(-8.36)"/><rect class="cls-7" x="67.46" y="20.59" width="11.34" height="12.79" rx="1.85" transform="translate(1.85 58.52) rotate(-44.12)"/><rect class="cls-3" x="67.46" y="20.59" width="11.34" height="12.79" rx="1.85" transform="translate(1.85 58.52) rotate(-44.12)"/><path class="cls-2" d="M53.39,8a13.54,13.54,0,0,1-13.48,9c-10.66-.21-15.28,4.37-16.32,8.61s-7,8.32-11.06,7.71"/><circle cx="55.76" cy="53.95" r="1.66"/><circle cx="37.86" cy="8.59" r="1.66"/><circle cx="15.03" cy="24.74" r="1.66"/><circle cx="48.54" cy="66.83" r="1.66"/><circle cx="31.47" cy="65.97" r="1.66"/><circle cx="72.01" cy="48.92" r="1.66"/><path class="cls-2" d="M66.37,57.13s-1.06,4.8-8.44,6.08"/></g></g></svg>