<svg id="Layer_1" data-name="Layer 1" xmlns="http://www.w3.org/2000/svg" viewBox="0 0 345 451.11"><defs><style>.cls-1{fill:#efc03c;}.cls-2{fill:#fc4e51;}.cls-3{fill:#faf8ed;}.cls-4{fill:#ff9017;}.cls-5{fill:none;}</style></defs><rect class="cls-1" x="209.38" y="67.02" width="45.99" height="199.29" rx="8.51" transform="translate(-128.05 -24.71) rotate(-8.05)"/><path d="M230.77,274.44a15.53,15.53,0,0,1-15.33-13.34L189.92,80.64A15.52,15.52,0,0,1,203.1,63.1l28.68-4.05a15.5,15.5,0,0,1,17.53,13.18L274.84,252.7a15.52,15.52,0,0,1-13.19,17.53L233,274.29A16.26,16.26,0,0,1,230.77,274.44ZM234,72.89l-.22,0-28.67,4a1.52,1.52,0,0,0-1.29,1.71L229.3,259.14a1.54,1.54,0,0,0,.59,1,1.46,1.46,0,0,0,1.12.28l28.68-4.05a1.52,1.52,0,0,0,1.29-1.71L235.45,74.19a1.46,1.46,0,0,0-.59-1A1.43,1.43,0,0,0,234,72.89Z" transform="translate(-107 -58.89)"/><rect class="cls-1" x="126.62" y="110.36" width="45.99" height="199.29" rx="8.51" transform="translate(-134.93 -35.87) rotate(-8.05)"/><path d="M148,317.78a15.51,15.51,0,0,1-15.32-13.35L107.15,124a15.53,15.53,0,0,1,13.19-17.53L149,102.38a15.53,15.53,0,0,1,17.53,13.19L192.07,296a15.5,15.5,0,0,1-13.18,17.53l-28.68,4.06A16.43,16.43,0,0,1,148,317.78Zm3.19-201.55H151L122.3,120.3A1.51,1.51,0,0,0,121,122l25.52,180.46a1.52,1.52,0,0,0,1.71,1.29l28.68-4.06a1.46,1.46,0,0,0,1-.59,1.51,1.51,0,0,0,.29-1.12L152.69,117.53A1.52,1.52,0,0,0,151.19,116.23Z" transform="translate(-107 -58.89)"/><rect class="cls-1" x="389.47" y="116.52" width="45.99" height="199.29" rx="8.51" transform="translate(-81.86 -101.25) rotate(6.06)"/><path d="M417.26,323.83a15.39,15.39,0,0,1-1.66-.09h0l-28.79-3.06A15.52,15.52,0,0,1,373,303.62l19.25-181.24a15.52,15.52,0,0,1,17.07-13.79l28.8,3.06a15.52,15.52,0,0,1,13.78,17.06L432.66,310a15.53,15.53,0,0,1-15.4,13.87Zm-.19-14a1.51,1.51,0,0,0,1.11-.33,1.47,1.47,0,0,0,.56-1L438,127.24a1.52,1.52,0,0,0-1.34-1.67l-28.8-3.06a1.53,1.53,0,0,0-1.67,1.35L386.93,305.1a1.51,1.51,0,0,0,1.35,1.66Z" transform="translate(-107 -58.89)"/><rect class="cls-1" x="305.25" y="67.02" width="45.99" height="199.29" rx="8.51" transform="translate(-87.56 -92.63) rotate(6.06)"/><path d="M333,274.33a15.48,15.48,0,0,1-1.65-.09l-28.8-3.06a15.5,15.5,0,0,1-13.79-17.06L308.05,72.88a15.53,15.53,0,0,1,17.06-13.79l28.8,3.06A15.52,15.52,0,0,1,367.7,79.22L348.45,260.46A15.54,15.54,0,0,1,333,274.33Zm-.17-14a1.51,1.51,0,0,0,1.66-1.34L353.78,77.74a1.53,1.53,0,0,0-1.35-1.67L323.63,73A1.52,1.52,0,0,0,322,74.36L302.72,255.6a1.49,1.49,0,0,0,1.34,1.66Z" transform="translate(-107 -58.89)"/><rect class="cls-1" x="253.72" y="102.38" width="45.99" height="199.29" rx="8.51" transform="translate(-115.24 -47.09) rotate(-2.41)"/><path d="M266.07,309.2a15.53,15.53,0,0,1-15.49-14.86l-7.66-182.1a15.51,15.51,0,0,1,14.85-16.15l28.94-1.22a15.55,15.55,0,0,1,16.15,14.85l7.65,182.1A15.51,15.51,0,0,1,295.67,308l-28.94,1.21Zm21.29-200.34h-.07l-28.93,1.21a1.51,1.51,0,0,0-1.05.49,1.47,1.47,0,0,0-.4,1.09l7.66,182.1a1.52,1.52,0,0,0,1.57,1.45L295.08,294a1.52,1.52,0,0,0,1.45-1.57l-7.66-182.1A1.52,1.52,0,0,0,287.36,108.86Z" transform="translate(-107 -58.89)"/><rect class="cls-1" x="161.94" y="92.35" width="45.99" height="199.29" rx="8.51" transform="translate(-114.9 -50.95) rotate(-2.41)"/><path d="M174.27,299.17a15.53,15.53,0,0,1-15.48-14.86l-7.66-182.1A15.53,15.53,0,0,1,166,86.06l28.94-1.22a15.53,15.53,0,0,1,16.15,14.85l7.65,182.1a15.5,15.5,0,0,1-14.84,16.15l-28.94,1.21Zm21.3-200.34h-.07L166.57,100a1.53,1.53,0,0,0-1.45,1.58l7.66,182.1a1.49,1.49,0,0,0,.49,1,1.52,1.52,0,0,0,1.08.4L203.29,284a1.47,1.47,0,0,0,1.05-.49,1.51,1.51,0,0,0,.4-1.09l-7.66-182.1A1.51,1.51,0,0,0,195.57,98.83Z" transform="translate(-107 -58.89)"/><rect class="cls-1" x="339.61" y="92.76" width="45.99" height="199.29" rx="8.51" transform="translate(-54.45 -135.49) rotate(12.99)"/><path d="M356.22,300a15.5,15.5,0,0,1-3.49-.39l-28.22-6.52a15.53,15.53,0,0,1-11.63-18.6l41-177.59a15.5,15.5,0,0,1,18.6-11.63l28.22,6.51a15.52,15.52,0,0,1,11.62,18.61l-41,177.59A15.53,15.53,0,0,1,356.22,300ZM369,98.83a1.51,1.51,0,0,0-.79.23,1.47,1.47,0,0,0-.67.94l-41,177.6a1.52,1.52,0,0,0,1.14,1.81l28.22,6.51a1.51,1.51,0,0,0,1.81-1.13l41-177.59a1.46,1.46,0,0,0-.19-1.14,1.48,1.48,0,0,0-.94-.68l-28.22-6.51A1.45,1.45,0,0,0,369,98.83Z" transform="translate(-107 -58.89)"/><rect class="cls-1" x="311.91" y="147.39" width="45.99" height="199.29" rx="8.51" transform="translate(-95.05 -74.32) rotate(2.69)"/><path d="M345.11,354.26l-.74,0h0l-28.93-1.36a15.53,15.53,0,0,1-14.77-16.22l8.55-182.06a15.51,15.51,0,0,1,16.22-14.77l28.93,1.36a15.53,15.53,0,0,1,14.77,16.22l-8.55,182.06a15.5,15.5,0,0,1-15.48,14.79Zm-.08-14a1.54,1.54,0,0,0,1.58-1.44l8.54-182.06a1.52,1.52,0,0,0-1.44-1.59l-28.93-1.35a1.52,1.52,0,0,0-1.58,1.44l-8.54,182.06a1.51,1.51,0,0,0,1.44,1.58Z" transform="translate(-107 -58.89)"/><rect class="cls-1" x="245.76" y="167.2" width="45.99" height="199.29" rx="8.51" transform="translate(-141.72 -18.63) rotate(-8.05)"/><path d="M267.14,374.62a15.51,15.51,0,0,1-15.32-13.35L226.29,180.81a15.53,15.53,0,0,1,13.19-17.53l28.68-4.06a15.51,15.51,0,0,1,17.53,13.19l25.52,180.46A15.5,15.5,0,0,1,298,370.4l-28.67,4.06A16.43,16.43,0,0,1,267.14,374.62Zm3.2-201.55h-.22l-28.68,4.06a1.51,1.51,0,0,0-1.29,1.71l25.53,180.46a1.48,1.48,0,0,0,.59,1,1.51,1.51,0,0,0,1.12.29l28.67-4.06a1.46,1.46,0,0,0,1-.59,1.51,1.51,0,0,0,.29-1.12L271.83,174.37a1.49,1.49,0,0,0-.59-1A1.55,1.55,0,0,0,270.34,173.07Z" transform="translate(-107 -58.89)"/><rect class="cls-1" x="191.12" y="135.44" width="45.99" height="199.29" rx="8.51" transform="translate(-189.69 62.1) rotate(-26.65)"/><path d="M242.06,338.54A15.54,15.54,0,0,1,228.17,330l-81.74-162.9a15.54,15.54,0,0,1,6.91-20.82l25.89-13a15.53,15.53,0,0,1,20.82,6.9l81.74,162.91a15.54,15.54,0,0,1-6.91,20.82h0l-25.89,13A15.35,15.35,0,0,1,242.06,338.54ZM186.18,145.62a1.51,1.51,0,0,0-.68.16l-25.88,13a1.5,1.5,0,0,0-.67,2l81.73,162.9a1.53,1.53,0,0,0,2,.68l25.88-13a1.51,1.51,0,0,0,.67-2L187.54,146.45A1.55,1.55,0,0,0,186.18,145.62Z" transform="translate(-107 -58.89)"/><path class="cls-2" d="M445,210,397,503H163L114,210h89.54a78.51,78.51,0,0,0,153.92,0Z" transform="translate(-107 -58.89)"/><polygon class="cls-3" points="306.71 342.11 38.94 342.11 28.83 288.83 314.5 288.83 306.71 342.11"/><path d="M397,510H163a7,7,0,0,1-6.9-5.85l-49-293A7,7,0,0,1,114,203h89.54a7,7,0,0,1,6.86,5.63,71.51,71.51,0,0,0,140.2,0,7,7,0,0,1,6.86-5.63H445a7,7,0,0,1,6.91,8.13l-48,293A7,7,0,0,1,397,510ZM168.93,496H391.05l45.71-279H363a85.52,85.52,0,0,1-165,0H122.27Z" transform="translate(-107 -58.89)"/><circle class="cls-4" cx="171.95" cy="316.48" r="67.98"/><path d="M279,450.36a75,75,0,1,1,75-75A75.07,75.07,0,0,1,279,450.36Zm0-136a61,61,0,1,0,61,61A61.06,61.06,0,0,0,279,314.39Z" transform="translate(-107 -58.89)"/><line class="cls-5" x1="28.83" y1="288.83" x2="77.93" y2="288.83"/><path d="M180.11,354.72H135.83a7,7,0,0,1,0-14h44.28a7,7,0,0,1,0,14Z" transform="translate(-107 -58.89)"/><path d="M184.93,408h-39a7,7,0,0,1,0-14h39a7,7,0,1,1,0,14Z" transform="translate(-107 -58.89)"/><path d="M419.57,354.72h-45a7,7,0,1,1,0-14h45a7,7,0,0,1,0,14Z" transform="translate(-107 -58.89)"/><path d="M413.71,408H374.57a7,7,0,1,1,0-14h39.14a7,7,0,1,1,0,14Z" transform="translate(-107 -58.89)"/></svg>