<svg width="50" height="50" viewBox="0 0 50 50" fill="none" xmlns="http://www.w3.org/2000/svg">
<circle cx="25" cy="25" r="24.75" fill="white" stroke="#505050" stroke-width="0.5"/>
<g clip-path="url(#clip0_297_289)">
<path d="M35.7304 21.043C36.697 22.2469 36.8196 22.8327 36.4661 24.417C37.1051 24.417 37.7354 24.417 38.3657 24.417C38.8188 24.417 39.0257 24.6243 38.9845 25.0485C38.7604 27.3413 38.1712 29.5237 36.9594 31.5151C35.8763 33.3069 34.3076 34.7605 32.4323 35.7098C32.3288 35.7631 32.2254 35.8192 32.1066 35.8829C32.8873 36.756 33.3757 37.8482 33.5042 39.0087C33.5278 39.1734 33.537 39.3398 33.532 39.5061C33.5147 39.7914 33.3462 39.9588 33.0578 39.993C32.9622 40.0003 32.8662 40.0019 32.7704 39.9977H17.2425C16.5776 39.9977 16.4177 39.8237 16.4761 39.158C16.5826 37.9485 17.0779 36.8049 17.8891 35.8962C17.8359 35.8524 17.7799 35.812 17.7214 35.7754C14.5028 34.1588 12.5572 31.5274 11.6108 28.1315C11.3502 27.1996 11.2276 26.2296 11.0542 25.2729C10.9843 24.9001 10.9862 24.5492 11.3598 24.4398C11.2094 24.2496 11.0619 24.0518 10.8933 23.8692C10.8253 23.8076 10.7364 23.7736 10.6443 23.7742C9.59724 23.7932 8.41707 22.3876 8.51957 21.216C8.52607 21.08 8.49493 20.9449 8.42953 20.8252C7.95056 19.9208 7.77239 19.024 8.42378 18.113C8.47742 18.0379 8.44294 17.8724 8.40558 17.764C8.00708 16.6124 8.02241 15.4912 8.73415 14.4641C10.0388 12.5926 12.7479 12.6468 14.1589 14.5735C14.2531 14.7199 14.3797 14.8431 14.5291 14.9336C14.6785 15.024 14.8468 15.0794 15.021 15.0956C15.8832 15.224 16.3937 15.8411 16.7635 16.5896C16.8513 16.7618 16.9774 16.9121 17.1323 17.0289C17.6131 17.3913 17.9428 17.9166 18.0586 18.5048C18.1065 18.7178 18.2109 18.7901 18.4217 18.8586C19.0156 19.0488 19.5903 19.3027 20.1651 19.5243C20.1929 19.3265 20.2379 19.0754 20.2609 18.8215C20.2622 18.777 20.2544 18.7328 20.238 18.6914C20.2215 18.65 20.1967 18.6124 20.1651 18.5809C19.9858 18.4227 19.8404 18.2304 19.7374 18.0154C19.6344 17.8004 19.5759 17.567 19.5655 17.3292C19.555 17.0913 19.5928 16.8538 19.6765 16.6307C19.7603 16.4076 19.8883 16.2034 20.053 16.0304C20.5789 15.4703 21.6815 15.1384 22.6777 16.0304C23.1509 15.7651 23.6452 15.5463 24.2257 15.6804C24.2985 15.6966 24.4173 15.5758 24.4949 15.495C25.4663 14.4299 26.8572 14.0276 28.0948 14.4603C29.7539 15.0404 30.5777 16.7874 30.0107 18.5181C29.9733 18.6284 29.9302 18.7378 29.8622 18.927C31.1305 18.2566 32.3087 18.3165 33.4285 19.1515L33.5167 19.0982C33.44 18.6674 33.4209 18.2138 33.2733 17.8106C33.0051 17.0936 32.6574 16.4051 32.3365 15.708C32.1334 15.2687 31.8527 14.8521 31.7234 14.3957C31.4916 13.5987 32.0635 12.9397 32.9036 13.0044C33.9573 13.0843 34.7083 13.6358 35.1758 14.5668C35.3281 14.8711 35.4411 15.1954 35.5743 15.5178C35.7201 15.2586 35.88 15.0075 36.0533 14.7656C36.8148 13.8146 37.9432 13.8764 38.6253 14.8788C39.0487 15.5016 39.1387 16.1597 38.8044 16.8311C38.5515 17.337 38.2297 17.8087 37.9327 18.3051C38.359 18.3422 38.8159 18.3622 39.2681 18.4249C40.1302 18.5448 40.9281 18.8205 41.4607 19.5556C41.6693 19.8432 41.831 20.1615 41.9397 20.499C42.2022 21.3206 41.5738 22.0491 40.7116 21.9378C40.3334 21.8917 39.9626 21.7981 39.6081 21.6592C38.5218 21.2227 37.4164 20.9155 36.2314 20.983C36.0695 20.9916 35.9086 21.0201 35.7304 21.043ZM12.0955 25.4336C12.096 25.5447 12.1047 25.6556 12.1214 25.7655C12.3273 26.6661 12.4729 27.5857 12.7594 28.4605C13.7393 31.4571 15.6025 33.7213 18.5289 35.0432C18.8628 35.1915 19.2237 35.2705 19.5894 35.2752C22.9115 35.2923 26.2355 35.241 29.5566 35.3095C30.6913 35.343 31.8074 35.0176 32.7436 34.3803C32.8327 34.3214 32.9247 34.2662 33.0138 34.2063C35.3645 32.6268 36.7497 30.3891 37.4777 27.7131C37.6779 26.9751 37.8024 26.2172 37.9691 25.4307L12.0955 25.4336ZM32.4993 38.985C32.372 38.0889 31.9831 37.2495 31.3805 36.5704C31.2977 36.4714 31.1925 36.3932 31.0735 36.3421C30.9544 36.2911 30.825 36.2686 30.6956 36.2766C26.9779 36.2861 23.2611 36.2947 19.5443 36.269C19.0223 36.269 18.6889 36.444 18.4102 36.8396C17.9542 37.4843 17.6122 38.1709 17.5308 38.9869L32.4993 38.985ZM17.115 18.6399C16.9484 18.3964 16.8219 17.9903 16.5901 17.919C16.0527 17.7535 15.9636 17.3589 15.7921 16.9395C15.6663 16.6592 15.4651 16.4187 15.2107 16.2444C14.9915 16.1131 14.7332 16.0613 14.4798 16.0979C13.9941 16.1673 13.8868 16.1483 13.6723 15.6928C13.433 15.1705 13.0416 14.7313 12.5486 14.4318C12.2188 14.2245 11.8396 14.1077 11.4495 14.0932C11.0595 14.0786 10.6725 14.1669 10.3279 14.3491C9.98341 14.5312 9.69362 14.8007 9.48804 15.1301C9.28246 15.4595 9.16843 15.837 9.15755 16.2244C9.1338 16.7843 9.26996 17.3394 9.5503 17.8258C9.74955 18.1834 9.70549 18.3774 9.37213 18.6151C9.25809 18.6916 9.16531 18.7954 9.10236 18.9169C9.03941 19.0384 9.00831 19.1737 9.01195 19.3103C9.0062 19.7706 9.17767 20.1576 9.45163 20.5228C9.55988 20.6683 9.65376 20.9032 9.61831 21.061C9.47367 21.7181 9.8099 22.4599 10.4383 22.7167C10.5338 22.7645 10.6428 22.7793 10.7477 22.7585C11.1577 22.6045 11.3914 22.7842 11.6022 23.1161C11.8393 23.4814 12.2091 23.742 12.6348 23.8436C12.6722 23.3928 12.7162 22.9877 12.7306 22.5911C12.7245 22.5357 12.7047 22.4827 12.673 22.4367C12.6412 22.3907 12.5985 22.3533 12.5486 22.3277C12.1434 22.1955 11.7238 22.1023 11.3119 21.9863C10.9949 21.8912 10.8483 21.644 10.9431 21.3625C11.038 21.081 11.2612 20.9593 11.5629 21.0334C11.9796 21.1362 12.3925 21.255 12.8082 21.3492C12.9155 21.3739 13.1128 21.371 13.1387 21.3178C13.1869 21.1955 13.1869 21.0597 13.1387 20.9374C13.0213 20.6393 12.8761 20.3527 12.7048 20.0815C12.593 19.8951 12.4289 19.745 12.2325 19.6498C11.8277 19.5103 11.4147 19.3953 10.9958 19.3055C10.6653 19.2228 10.4862 19.0126 10.5312 18.7349C10.5762 18.4573 10.8042 18.2937 11.1424 18.3251C11.3732 18.346 11.6031 18.3859 11.8771 18.4202L11.2391 17.1411C10.9958 16.6561 11.0284 16.368 11.3426 16.2158C11.6568 16.0637 11.9001 16.2158 12.1444 16.7018C12.3532 17.1145 12.562 17.5282 12.7891 17.9789C12.9433 17.6993 13.0486 17.473 13.1856 17.2666C13.2169 17.2117 13.2592 17.1636 13.31 17.1256C13.3608 17.0876 13.4189 17.0604 13.4807 17.0456C13.5426 17.0309 13.6068 17.029 13.6694 17.04C13.7321 17.0511 13.7917 17.0748 13.8447 17.1097C14.0976 17.2486 14.1675 17.4797 14.0458 17.7497C13.9242 18.0198 13.7997 18.3156 13.6627 18.5904C13.3657 19.1886 13.5621 19.6954 13.8916 20.1329C14.3926 19.8086 14.8495 19.4358 15.3745 19.1924C15.8994 18.9489 16.4761 18.8377 17.115 18.6399ZM25.8504 24.3276L25.9117 24.417H34.8329C34.9396 24.4296 35.0476 24.4274 35.1538 24.4104C35.2587 24.3866 35.3513 24.3258 35.4143 24.2392C35.8272 23.4071 35.7467 22.5122 35.0723 21.876C34.2785 21.1411 33.4451 20.4494 32.576 19.8038C31.9897 19.3597 31.3019 19.3455 30.6429 19.6745C30.2539 19.8551 29.8891 20.0828 29.5566 20.3526C28.9324 20.8846 28.3392 21.4513 27.7796 22.05C27.1033 22.7813 26.4903 23.5659 25.8504 24.3276ZM28.5163 19.8333C28.2758 19.5271 28.4416 19.2627 28.637 18.9651C28.8596 18.6304 29.0231 18.2606 29.1207 17.8715C29.3123 17.0156 29.0661 16.2653 28.3467 15.7251C27.6446 15.1992 26.8562 15.106 26.0956 15.5454C25.677 15.7879 25.3245 16.1645 24.9921 16.5268C24.7047 16.8387 24.5658 16.9291 24.2008 16.7465C24.08 16.681 23.9437 16.6488 23.8061 16.6532C23.6685 16.6575 23.5346 16.6983 23.4182 16.7712C23.0597 16.9667 22.7795 17.2781 22.6241 17.6537C22.557 17.8097 22.3942 18.0217 22.2562 18.0341C21.5857 18.1035 21.3893 18.5999 21.2265 19.1144C21.1479 19.3607 21.1431 19.6241 21.3759 19.8381C21.578 20.0283 21.5388 20.2422 21.442 20.4895C21.3203 20.8024 21.1671 21.1552 21.1987 21.4661C21.2849 22.322 21.4612 23.1779 21.6106 24.087C21.8798 23.7161 22.0982 23.3757 22.3578 23.0695C22.472 22.9419 22.5536 22.7888 22.5956 22.6233C22.6377 22.4578 22.6389 22.2846 22.5992 22.1185C22.4497 21.3758 22.3118 20.6312 22.1643 19.8866C22.1078 19.5918 22.2524 19.3407 22.513 19.2742C22.5766 19.256 22.6432 19.2507 22.7088 19.2586C22.7745 19.2664 22.838 19.2872 22.8955 19.3197C22.9529 19.3522 23.0033 19.3958 23.0435 19.4479C23.0838 19.5 23.1131 19.5596 23.1299 19.6232C23.1672 19.7344 23.1893 19.8523 23.2161 19.9674L23.5446 21.4157C23.8962 20.9288 24.2152 20.5009 24.5141 20.0597C24.5809 19.9499 24.6069 19.8204 24.5878 19.6935C24.5093 19.2523 24.4077 18.8148 24.3091 18.3774C24.242 18.0778 24.3359 17.8553 24.63 17.7516C24.9241 17.648 25.1233 17.7754 25.2411 18.0369C25.3369 18.2385 25.3954 18.4535 25.4902 18.7169L26.2173 17.7212C26.2954 17.602 26.3809 17.4877 26.473 17.3789C26.6723 17.1677 26.9156 17.1297 27.1436 17.3066C27.3716 17.4835 27.4166 17.7469 27.2394 17.9998C26.9443 18.4259 26.6378 18.8453 26.3006 19.3169C26.588 19.3169 26.815 19.3036 27.0372 19.3169C27.3246 19.3398 27.5047 19.5071 27.5028 19.8029C27.5028 20.1129 27.3112 20.2784 27.0018 20.2936C26.7393 20.2962 26.4771 20.3127 26.2163 20.343C25.9385 20.3896 25.5822 20.4049 25.4145 20.5798C25.0266 20.984 24.7325 21.4757 24.3685 21.9759C24.5045 21.9759 24.5601 21.9759 24.6204 21.9759C25.2478 21.9397 25.8762 21.9055 26.5027 21.8617C26.5697 21.8466 26.6296 21.8098 26.6732 21.7571C27.2873 21.1304 27.8927 20.4885 28.5163 19.8333V19.8333ZM20.531 24.4151C20.546 24.123 20.5441 23.8302 20.5253 23.5383C20.4295 22.73 20.3088 21.9217 20.19 21.1181C20.1718 21.0283 20.1295 20.9452 20.0674 20.8775C19.0271 19.6945 17.1237 19.375 15.6609 20.1338C14.178 20.9041 13.3619 22.633 13.7451 24.1812C13.791 24.3714 13.8811 24.4265 14.0679 24.4208C14.4376 24.3962 14.8086 24.3978 15.1781 24.4256C15.6092 24.4712 15.864 24.2696 16.1063 23.9006C15.7864 23.9006 15.5048 23.9006 15.2231 23.9006C14.84 23.9006 14.6082 23.7104 14.6053 23.408C14.6024 23.1056 14.8313 22.9107 15.2126 22.905C15.5 22.905 15.7874 22.905 16.0747 22.905L16.1044 22.8099C15.9033 22.6197 15.6954 22.4447 15.5019 22.2516C15.2145 21.9664 15.1877 21.701 15.4061 21.4718C15.6245 21.2427 15.9263 21.2721 16.2175 21.5536C16.4138 21.7438 16.6073 21.934 16.8123 22.1366C16.8545 22.0672 16.8641 22.0576 16.865 22.0472C16.865 21.7866 16.8708 21.5261 16.8756 21.2655C16.8832 20.8784 17.0671 20.6531 17.3708 20.6531C17.6745 20.6531 17.868 20.8784 17.8776 21.2626C17.8843 21.5394 17.8776 21.8161 17.8776 22.0928L17.9733 22.129C18.1649 21.9245 18.3565 21.7143 18.5596 21.5184C18.8125 21.274 19.1152 21.2598 19.3212 21.4652C19.5271 21.6706 19.5242 21.9568 19.2694 22.2174C19.0654 22.4266 18.847 22.6216 18.6439 22.8146C18.6841 22.8726 18.6899 22.8897 18.6966 22.8897C18.9705 22.8955 19.2455 22.8983 19.5204 22.9031C19.9199 22.9097 20.1287 23.078 20.1325 23.3947C20.1363 23.7114 19.9246 23.893 19.5319 23.8987C19.2445 23.8987 18.9571 23.8987 18.6698 23.8987L18.6449 23.9938C18.8307 24.1327 19.0031 24.3638 19.2052 24.3923C19.6373 24.4589 20.0817 24.4151 20.531 24.4151V24.4151ZM35.2515 19.3788L35.3233 19.4292C35.9326 18.8196 36.5629 18.2309 37.1434 17.5938C37.4363 17.2515 37.6851 16.8742 37.8838 16.4707C38.1195 16.0228 38.016 15.6243 37.6654 15.2658C37.4537 15.0509 37.2066 15.0052 37.0102 15.2297C36.7942 15.4651 36.6205 15.7356 36.4968 16.0294C36.1328 16.9557 35.809 17.8981 35.467 18.8329C35.4038 19.0174 35.3224 19.1971 35.2515 19.3788ZM36.2094 19.9075C36.9614 20.0026 37.608 20.0368 38.2297 20.1785C38.8514 20.3202 39.4491 20.5713 40.0574 20.77C40.2474 20.8375 40.442 20.8912 40.6398 20.9307C40.7503 20.9537 40.8655 20.9347 40.9626 20.8775C41.0029 20.8471 40.9626 20.6778 40.9262 20.5855C40.8289 20.3425 40.6773 20.1246 40.4828 19.9482C40.2883 19.7718 40.0561 19.6415 39.8035 19.567C38.8454 19.2554 37.8139 19.2444 36.8493 19.5357C36.6424 19.5994 36.4613 19.7591 36.2094 19.9075ZM32.598 14.0676C33.304 15.5264 34.3328 16.8397 34.5139 18.5191C34.671 18.1083 34.8012 17.7022 34.8175 17.2914C34.8396 16.4589 34.6351 15.636 34.2255 14.9092C33.8864 14.2834 33.2226 13.9211 32.598 14.0676ZM22.6155 24.4151C23.2783 24.4151 23.8608 24.4151 24.4355 24.4151C24.5057 24.4128 24.5722 24.3831 24.6204 24.3324C24.9902 23.8569 25.3532 23.3814 25.7172 22.8993L25.6732 22.8042C24.9681 22.9535 24.2631 23.1009 23.5581 23.253C23.5001 23.2633 23.4472 23.2924 23.4077 23.3358C23.1567 23.6667 22.9105 24.01 22.6155 24.4151ZM20.7791 17.7526C20.9113 17.6222 21.0514 17.4999 21.1987 17.3865C21.3443 17.2866 21.5282 17.2381 21.6642 17.1297C21.7822 17.0394 21.8676 16.9136 21.9076 16.7712C21.919 16.7103 21.7476 16.581 21.6374 16.5353C21.4823 16.4705 21.3099 16.4582 21.147 16.5003C20.984 16.5424 20.8396 16.6366 20.736 16.7683C20.4994 17.0669 20.5071 17.3941 20.7791 17.7526Z" fill="#505050"/>
</g>
<defs>
<clipPath id="clip0_297_289">
<rect width="34" height="27" fill="white" transform="translate(8 13)"/>
</clipPath>
</defs>
</svg>
