<svg xmlns="http://www.w3.org/2000/svg" viewBox="0 0 84.7 84.37"><defs><style>.cls-1{fill:#67ce36;}.cls-1,.cls-4,.cls-5,.cls-6,.cls-7{stroke:#000;stroke-linecap:round;stroke-linejoin:round;stroke-width:2.5px;}.cls-2{fill:#f04348;}.cls-3,.cls-5{fill:#82d1d1;}.cls-4{fill:none;}.cls-6{fill:#f39200;}.cls-7{fill:#88b337;}</style></defs><g id="Layer_2" data-name="Layer 2"><g id="Layer_1-2" data-name="Layer 1"><path class="cls-1" d="M23.8,32s1.57-2.9-2.55-4.29c0,0-1.33-5.45-5.85-3.88,0,0-4.29-7.71-10.89-3.83-5.28,3.13-1.8,9.91-1.8,9.91s-3.36,3.77.12,7c0,0-.41,6.32,4.46,5.86,0,0,3.47,3.18,3.47,3.18"/><circle class="cls-2" cx="23.19" cy="42.58" r="9.46"/><path class="cls-1" d="M32.9,45.64s-3.19-8.41-.58-10.49c.06,0-2.09-5.95,2.78-6.6a4.79,4.79,0,0,1,6-3.25S44.94,19.18,51,23c5.62,3.57.75,11.33.75,11.33L42,46.14Z"/><path class="cls-3" d="M9,47H75.26S76.74,63.69,58,73.86H26.32A30,30,0,0,1,9,47Z"/><path class="cls-4" d="M12.12,60A30.75,30.75,0,0,1,9,47H75.26S76.74,63.69,58,73.86H26.32a26.55,26.55,0,0,1-5.75-3.52"/><path class="cls-5" d="M59.67,83.12H62s.65-3.91-4-9.08c0,0-31.38-.18-31.38-.18s-4.78,4.78-4,9.26H51.26"/><path class="cls-4" d="M64.65,63.61a16,16,0,0,0,3.48-5"/><path class="cls-6" d="M68.74,46.14s2.09-3.7.35-6.35l-8.35-7.17s-2.39-2.13-6.52.74S42.49,45.88,42.49,45.88"/><path class="cls-1" d="M64.48,35.1s1.16-5-3.88-12.81c-3.13-5.21,2.51-4.92,4.29-2.49,1.65,2.26,3.13,3.65,2.55,8.87C67.26,31.86,64.48,35.1,64.48,35.1Z"/><path class="cls-7" d="M64.65,35.21l5.13-12s3.16-4.64,5.92-.06S66,36,66,36"/><path class="cls-1" d="M65.49,35.59s9.62-7.53,16.58-1.16c3.42,3.51-.41,4.43-1.86,3.83s-3.94-3.13-13.87-2"/><line class="cls-4" x1="34.52" y1="45.64" x2="46.69" y2="29.01"/><line class="cls-4" x1="42.49" y1="33.82" x2="41.65" y2="30.11"/><line class="cls-4" x1="43.5" y1="34.58" x2="47.21" y2="34.17"/><line class="cls-4" x1="38.93" y1="41.01" x2="45.01" y2="40.43"/><line class="cls-4" x1="37.59" y1="40.43" x2="36.38" y2="34.17"/><path class="cls-4" d="M32.9,45.64s-3.19-8.41-.58-10.49c.06,0-2.09-5.95,2.78-6.6a4.79,4.79,0,0,1,6-3.25S44.94,19.18,51,23c5.62,3.57.75,11.33.75,11.33"/><path class="cls-4" d="M32.9,45.64s-3.19-8.41-.58-10.49c.06,0-2.09-5.95,2.78-6.6a4.79,4.79,0,0,1,6-3.25S44.94,19.18,51,23c5.62,3.57.75,11.33.75,11.33"/><path class="cls-6" d="M31.48,29.54a3.15,3.15,0,1,1,3.95-3"/><path class="cls-4" d="M13.89,46.86a10.23,10.23,0,0,1,17.5-10.15"/><line class="cls-4" x1="23.28" y1="37.94" x2="23.28" y2="45.64"/><line class="cls-4" x1="27.11" y1="39.33" x2="21.25" y2="45.35"/><line class="cls-4" x1="19.17" y1="39.33" x2="25.89" y2="45.64"/><line class="cls-4" x1="28.55" y1="43.21" x2="18.03" y2="43.21"/><line class="cls-4" x1="9.03" y1="26.45" x2="14.13" y2="36.31"/><line class="cls-4" x1="7.64" y1="31.86" x2="11.17" y2="32.8"/><line class="cls-4" x1="12.33" y1="31.87" x2="14.13" y2="28.55"/><line class="cls-4" x1="8.74" y1="38.43" x2="12.79" y2="39.83"/><circle class="cls-6" cx="23.17" cy="12.35" r="3.37"/><circle class="cls-6" cx="37.59" cy="4.62" r="3.37"/><circle class="cls-6" cx="55.53" cy="10.91" r="3.37"/></g></g></svg>