<svg width="50" height="50" viewBox="0 0 50 50" fill="none" xmlns="http://www.w3.org/2000/svg">
<circle cx="25" cy="25" r="24.75" fill="white" stroke="#505050" stroke-width="0.5"/>
<path d="M21.0821 13.2134C21.7451 12.3214 22.404 11.4294 23.0711 10.5454C23.2398 10.3204 23.4367 10.1195 23.6256 9.91054C24.3689 9.08281 25.5301 9.07477 26.2775 9.9025C27.5312 11.2968 28.6723 12.7714 29.4156 14.5474C29.5322 13.9809 29.6567 13.4143 29.7652 12.8438C29.9179 12.0562 30.0947 11.2807 30.6291 10.6418C31.3524 9.78196 32.2685 9.30782 33.3936 9.29978C35.4187 9.28371 37.4398 9.29175 39.4649 9.29978C40.377 9.29978 41.0601 9.97482 41.0561 10.8628C41.0561 11.7428 40.365 12.4058 39.4448 12.4058C37.5282 12.4058 35.6116 12.4058 33.6989 12.4058C33.1605 12.4058 33.036 12.5062 32.9275 13.0206C32.4694 15.2345 32.0073 17.4525 31.5573 19.6705C31.5372 19.779 31.5854 19.9437 31.6618 20.0161C32.0314 20.3616 32.2283 20.7634 32.2243 21.2737C32.2163 22.9694 32.2444 24.665 32.2163 26.3647C32.16 29.8564 30.8581 32.8258 28.3669 35.2728C28.2665 35.3693 28.166 35.4697 28.0535 35.5822C28.7125 36.2894 28.7848 37.0408 28.1861 37.8524C28.7969 38.194 29.4518 38.3869 30.1228 38.5315C30.3036 38.5717 30.4845 38.5837 30.6653 38.6159C31.9872 38.8409 32.7426 39.741 32.7426 41.091C32.7426 41.1955 32.7426 41.304 32.7426 41.4286H17.2127C16.8832 40.2553 17.7591 38.9253 19.0087 38.6601C19.7642 38.4994 20.5115 38.2824 21.2589 38.0815C21.4116 38.0413 21.5522 37.9529 21.6245 37.9167C21.516 37.4908 21.3232 37.093 21.3433 36.7033C21.3674 36.3135 21.6044 35.9358 21.737 35.5782C21.1303 34.8389 20.4231 34.0875 19.8405 33.2477C18.4221 31.2105 17.7149 28.9242 17.6828 26.441C17.6587 24.7253 17.6828 23.0055 17.6747 21.2858C17.6747 20.655 17.9359 20.1808 18.4784 19.8714C18.631 19.783 18.6552 19.6986 18.6351 19.5379C18.4181 17.6494 18.2132 15.7649 18.0042 13.8764C17.9078 13.0085 17.8194 12.1366 17.7029 11.2727C17.5462 10.1235 18.2292 9.27166 19.3101 9.29577C20.0735 9.31184 20.7124 9.91456 20.7928 10.7021C20.837 11.132 20.8852 11.562 20.9334 11.9879C20.9816 12.4018 21.0339 12.8196 21.0821 13.2134ZM28.0696 20.7032C28.0696 20.8559 28.0696 20.9764 28.0696 21.0929C28.0696 23.5118 28.0696 25.9347 28.0696 28.3536C28.0696 28.5144 28.0696 28.6791 28.0334 28.8358C27.8405 29.6314 27.1253 30.1256 26.3096 30.0332C25.5462 29.9488 24.9596 29.2738 24.9596 28.4621C24.9596 26.7785 24.9596 25.0909 24.9596 23.4074C24.9596 23.0297 24.7466 22.7845 24.4452 22.7805C24.1399 22.7805 23.9269 23.0216 23.9229 23.3953C23.9189 23.6967 23.9229 24.002 23.9229 24.3034C23.9189 25.2115 23.2398 25.8905 22.3518 25.8865C21.4839 25.8865 20.8129 25.1994 20.8089 24.3074C20.8089 23.2265 20.8089 22.1457 20.8089 21.0648C20.8089 20.9483 20.8089 20.8358 20.8089 20.6992C20.3146 20.6992 19.8606 20.6992 19.4106 20.6992C18.9163 20.6992 18.7315 20.888 18.7315 21.3903C18.7315 22.893 18.7235 24.3918 18.7315 25.8946C18.7315 26.425 18.7395 26.9553 18.8038 27.4777C19.1775 30.5355 20.5356 33.0749 22.9023 35.0639C23.0068 35.1523 23.1675 35.2126 23.3041 35.2166C24.4091 35.2286 25.51 35.2286 26.615 35.2166C26.7516 35.2166 26.9124 35.1563 27.0168 35.0719C28.9937 33.4165 30.3157 31.3431 30.8702 28.8238C31.0591 27.9639 31.1555 27.0759 31.1836 26.1959C31.2318 24.5887 31.1997 22.9774 31.1957 21.3662C31.1957 20.9402 31.0189 20.7112 30.6532 20.7032C29.8094 20.6911 28.9656 20.6992 28.0776 20.6992L28.0696 20.7032ZM30.0666 19.6585C29.8858 18.7745 29.275 17.9909 28.3267 17.4364C26.9485 16.6328 25.4538 16.4159 23.8907 16.6409C22.7014 16.8136 21.6165 17.2396 20.7365 18.0874C20.2905 18.5173 19.961 19.0196 19.8365 19.6585H30.0706H30.0666ZM31.5452 40.3959C31.3604 39.9419 31.0591 39.7289 30.4282 39.6405C29.2228 39.4758 28.1098 39.0619 27.061 38.4511C26.9485 38.3828 26.8039 38.3386 26.6713 38.3386C25.5261 38.3306 24.3769 38.3306 23.2318 38.3386C23.1273 38.3386 23.0108 38.3547 22.9224 38.4069C21.7812 39.1101 20.5396 39.5079 19.2177 39.6968C18.8159 39.757 18.5266 40.0021 18.3377 40.3959H31.5412H31.5452ZM28.5718 16.3074C28.5718 16.1225 28.608 15.9256 28.5638 15.7448C28.4593 15.3069 28.3629 14.8568 28.1821 14.447C27.5312 12.9804 26.5347 11.7428 25.4618 10.5655C25.1605 10.232 24.7145 10.2561 24.4091 10.6097C23.9872 11.0878 23.5693 11.57 23.1876 12.0803C22.4362 13.0728 21.737 14.1014 21.4276 15.331C21.3473 15.6524 21.3473 15.9939 21.3031 16.3516C21.946 16.1105 22.4965 15.9056 23.067 15.6926C22.846 15.1943 22.6291 14.6961 22.4 14.1737C22.7255 14.0291 23.0269 13.8965 23.3563 13.7478C23.5974 14.2903 23.8345 14.8086 24.0595 15.331C24.1359 15.5037 24.2243 15.6002 24.4493 15.4756V12.4339H25.49V15.0417C25.8998 14.5354 26.2614 14.0894 26.6311 13.6313C26.9164 13.8603 27.1735 14.0653 27.4428 14.2822C27.0811 14.7403 26.7356 15.1743 26.4101 15.5841C27.1253 15.8252 27.8205 16.0542 28.5678 16.3074H28.5718ZM27.0369 20.7192H21.8415C21.8415 21.9407 21.8335 23.1502 21.8455 24.3556C21.8455 24.6369 22.0987 24.8458 22.3558 24.8499C22.625 24.8499 22.8581 24.6329 22.8742 24.3275C22.8902 23.994 22.8742 23.6565 22.8782 23.323C22.8822 22.431 23.5492 21.7479 24.4171 21.7398C25.3091 21.7358 25.9882 22.4109 25.9922 23.319C25.9922 24.1065 25.9922 24.8941 25.9922 25.6856C25.9922 26.5937 25.9922 27.5018 25.9922 28.4059C25.9922 28.7555 26.2132 28.9925 26.5106 28.9965C26.8039 28.9965 27.0168 28.7595 27.0329 28.4099C27.0329 28.3577 27.0329 28.3014 27.0329 28.2492C27.0329 25.8504 27.0329 23.4516 27.0329 21.0568C27.0329 20.9523 27.0329 20.8438 27.0329 20.7192H27.0369ZM37.9782 10.3485C37.9782 10.3485 37.922 10.3324 37.8818 10.3324C36.3871 10.3324 34.8923 10.3123 33.4016 10.3405C32.1962 10.3606 31.1916 11.2084 30.9425 12.3696C30.609 13.9407 30.2876 15.5118 29.9661 17.0869C29.946 17.1954 29.93 17.344 29.9862 17.4204C30.2152 17.7338 30.4764 18.0311 30.7336 18.3445C30.7577 18.2803 30.7818 18.232 30.7939 18.1798C31.1675 16.3636 31.5452 14.5514 31.9149 12.7353C32.0957 11.8553 32.6703 11.3731 33.5744 11.3731C34.9365 11.3731 36.3027 11.3731 37.6648 11.3731C37.7773 11.3731 37.8898 11.3731 37.9782 11.3731V10.3525V10.3485ZM19.503 17.8463C19.7923 17.5731 20.0535 17.332 20.2986 17.0829C20.3468 17.0346 20.3749 16.9382 20.3669 16.8659C20.2544 15.6564 20.1419 14.447 20.0213 13.2375C19.941 12.4339 19.8485 11.6303 19.7561 10.8307C19.72 10.5133 19.4548 10.3003 19.1815 10.3405C18.8962 10.3847 18.6994 10.6418 18.7275 10.9512C18.7355 11.0597 18.7636 11.1642 18.7757 11.2727C19.0168 13.4545 19.2579 15.6404 19.499 17.8503L19.503 17.8463ZM24.9917 36.2613C24.3327 36.2613 23.6738 36.2613 23.0148 36.2613C22.613 36.2613 22.3639 36.4662 22.3599 36.7756C22.3599 37.089 22.609 37.2979 23.0068 37.2979C24.3006 37.2979 25.5984 37.2979 26.8923 37.2979C27.2941 37.2979 27.5432 37.093 27.5472 36.7796C27.5472 36.4662 27.2981 36.2613 26.9003 36.2573C26.2654 36.2573 25.6266 36.2573 24.9917 36.2573V36.2613ZM39.5011 10.3324C39.2319 10.3324 38.9868 10.5816 38.9868 10.8508C38.9868 11.12 39.2359 11.3651 39.5051 11.3651C39.7703 11.3651 40.0194 11.116 40.0194 10.8468C40.0194 10.5816 39.7703 10.3324 39.5011 10.3324Z" fill="#505050"/>
</svg>
