<svg id="Layer_1" data-name="Layer 1" xmlns="http://www.w3.org/2000/svg" viewBox="0 0 463.71 463.71"><defs><style>.cls-1{fill:#b2b6bb;}.cls-2{fill:#faf8ed;}.cls-3{fill:#603813;}.cls-4{fill:#f19846;}.cls-5{fill:#40a340;}</style></defs><circle class="cls-1" cx="231.86" cy="231.86" r="224.86"/><path d="M283,517.79A231.86,231.86,0,0,1,119.05,122,230.35,230.35,0,0,1,283,54.07a234.27,234.27,0,0,1,39.47,3.35,7,7,0,0,1-2.36,13.8A219.92,219.92,0,0,0,283,68.07c-120.13,0-217.86,97.73-217.86,217.86S162.87,503.79,283,503.79s217.86-97.73,217.86-217.86a219,219,0,0,0-88.34-175.2,7,7,0,1,1,8.33-11.25,234.13,234.13,0,0,1,68.39,80.4A231.9,231.9,0,0,1,283,517.79Z" transform="translate(-51.14 -54.07)"/><circle class="cls-2" cx="231.86" cy="231.86" r="147.49"/><path d="M366.74,414.36a7,7,0,0,1-4-12.76,140.57,140.57,0,0,0,43.75-182.67,7,7,0,0,1,12.3-6.69,154.57,154.57,0,0,1-48.09,200.87A7,7,0,0,1,366.74,414.36Z" transform="translate(-51.14 -54.07)"/><path class="cls-3" d="M391.37,276.82c-53.62,83.54,21.89,160.92-96.78,184-72.38,14.06-141.26-67.37-129.75-173.46,10.33-95.24,58.09-173.47,129.75-173.47S445.5,192.49,391.37,276.82Z" transform="translate(-51.14 -54.07)"/><path d="M375.05,257.78a7,7,0,0,1-4.95-2l-99.48-99.47a7,7,0,0,1,9.9-9.9L380,245.83a7,7,0,0,1-4.95,11.95Z" transform="translate(-51.14 -54.07)"/><path d="M344,321.51a7,7,0,0,1-4.95-2.05L214.67,195.12a7,7,0,0,1,9.9-9.9L348.91,309.56a7,7,0,0,1-5,11.95Z" transform="translate(-51.14 -54.07)"/><path d="M331.14,399.62a7,7,0,0,1-4.95-2.05L179.7,251.07a7,7,0,0,1,9.9-9.9l146.49,146.5a7,7,0,0,1-4.95,11.95Z" transform="translate(-51.14 -54.07)"/><path d="M274.41,437.7a7,7,0,0,1-5-2.05l-85.88-85.88a7,7,0,0,1,9.9-9.9l85.88,85.88a7,7,0,0,1-4.95,11.95Z" transform="translate(-51.14 -54.07)"/><path d="M189.31,368.14a7,7,0,0,1-4.95-11.95L362.72,177.83a7,7,0,0,1,9.9,9.9L194.26,366.09A7,7,0,0,1,189.31,368.14Z" transform="translate(-51.14 -54.07)"/><path d="M189.31,275.66a7,7,0,0,1-4.95-12L299,149.08a7,7,0,0,1,9.9,9.9L194.26,273.61A7,7,0,0,1,189.31,275.66Z" transform="translate(-51.14 -54.07)"/><path d="M235.94,416.32A7,7,0,0,1,231,404.37L341.73,293.63a7,7,0,0,1,9.9,9.9L240.89,414.27A7,7,0,0,1,235.94,416.32Z" transform="translate(-51.14 -54.07)"/><circle class="cls-4" cx="103.56" cy="117.81" r="33.44"/><path d="M154.7,212.32a40.44,40.44,0,1,1,40.44-40.44A40.48,40.48,0,0,1,154.7,212.32Zm0-66.88a26.44,26.44,0,1,0,26.44,26.44A26.47,26.47,0,0,0,154.7,145.44Z" transform="translate(-51.14 -54.07)"/><circle class="cls-4" cx="72.11" cy="183.13" r="33.44"/><path d="M123.25,277.64a7,7,0,0,1,0-14A26.44,26.44,0,1,0,96.81,237.2a7,7,0,0,1-14,0,40.44,40.44,0,1,1,40.44,40.44Z" transform="translate(-51.14 -54.07)"/><path class="cls-5" d="M225.06,154.42s-82.38,11.65-89.37-87.82c0,0,87,0,89.37,87.82" transform="translate(-51.14 -54.07)"/><path d="M209.81,161.52l-.6,0c-13-1.1-31.82-5.33-48.17-19.28-19.1-16.3-30-41.58-32.34-75.13a7,7,0,0,1,7-7.49,116.12,116.12,0,0,1,42.5,9.64c20.35,9,46,28.12,52.39,68.62a7,7,0,0,1-13.82,2.2c-4.34-27.35-19.07-46.8-43.78-57.82a105.07,105.07,0,0,0-29.54-8c7.21,59.28,44.64,71.46,66.95,73.35a7,7,0,0,1-.58,14Z" transform="translate(-51.14 -54.07)"/><path d="M278.13,469.4c-24.83,0-49.16-10-70-29.18-18-16.51-32.15-38.91-41-64.77-9.39-27.31-12.58-58-9.24-88.87,5.34-49.22,20.65-93.87,43.11-125.72,24.91-35.32,57.28-54,93.6-54,43.28,0,88.15,26.79,109.11,65.15,18.75,34.33,16.47,72.88-6.44,108.57a127.12,127.12,0,0,0-9.69,18.13,7,7,0,1,1-12.84-5.57A141.67,141.67,0,0,1,385.48,273c20-31.18,22.12-64.67,5.93-94.29-18.61-34.08-58.43-57.87-96.82-57.87-72.3,0-113.77,84-122.79,167.21-6.07,55.91,11.5,110.26,45.83,141.83,22.41,20.6,49.27,29.13,75.62,24,66-12.83,66.86-41,68.09-83.7.1-3.57.2-7.2.35-10.89a7,7,0,0,1,14,.56c-.15,3.63-.25,7.21-.35,10.73-.63,21.79-1.22,42.37-11.51,59.45-11.36,18.85-32.93,30.8-67.9,37.59A93.33,93.33,0,0,1,278.13,469.4Z" transform="translate(-51.14 -54.07)"/><circle class="cls-5" cx="84.67" cy="246.62" r="15.93"/><path d="M135.82,323.62a22.93,22.93,0,1,1,22.93-22.93A23,23,0,0,1,135.82,323.62Zm0-31.86a8.93,8.93,0,1,0,8.93,8.93A8.95,8.95,0,0,0,135.82,291.76Z" transform="translate(-51.14 -54.07)"/><circle class="cls-5" cx="56.18" cy="271.27" r="15.93"/><path d="M107.32,348.28a22.94,22.94,0,1,1,22.93-22.94A23,23,0,0,1,107.32,348.28Zm0-31.87a8.94,8.94,0,1,0,8.93,8.93A8.95,8.95,0,0,0,107.32,316.41Z" transform="translate(-51.14 -54.07)"/><circle class="cls-5" cx="86.05" cy="299.88" r="15.93"/><path d="M137.19,376.88A22.93,22.93,0,1,1,160.13,354,23,23,0,0,1,137.19,376.88Zm0-31.86a8.93,8.93,0,1,0,8.94,8.93A8.95,8.95,0,0,0,137.19,345Z" transform="translate(-51.14 -54.07)"/></svg>