<svg width="50" height="50" viewBox="0 0 50 50" fill="none" xmlns="http://www.w3.org/2000/svg">
<circle cx="25" cy="25" r="24.75" fill="white" stroke="#505050" stroke-width="0.5"/>
<path d="M34.7728 29.9764C34.6483 31.238 34.3751 32.4313 33.7965 33.5242C33.4229 34.2233 32.9849 34.8982 32.5068 35.5331C31.9523 36.2723 31.1648 36.654 30.2327 36.658C26.6448 36.6661 23.0569 36.6661 19.473 36.658C18.557 36.658 17.7976 36.2683 17.215 35.5612C15.7324 33.7532 14.9329 31.684 14.9249 29.3376C14.9088 24.6167 14.9208 23.2225 14.9208 18.5016C14.9208 17.9913 15.1217 17.7944 15.64 17.7944C21.7913 17.7944 27.9426 17.7944 34.0938 17.7944C34.5961 17.7944 34.809 18.0074 34.813 18.5136C34.817 19.2087 34.813 19.8998 34.813 20.631C35.3835 20.631 35.9219 20.627 36.4563 20.631C37.9389 20.6471 39.1362 21.6194 39.4456 23.0618C39.4697 23.1703 39.4857 23.2828 39.4857 23.3953C39.4857 25.7658 39.5179 24.8095 39.4777 27.18C39.4536 28.6867 38.1398 29.9322 36.6331 29.9724C36.0184 29.9885 35.3996 29.9724 34.7688 29.9724L34.7728 29.9764ZM23.5471 18.9676C23.5471 19.5984 23.6033 21.1011 23.7761 21.1734C24.439 21.4506 25.0899 21.756 25.7529 22.0332C26.0743 22.1658 26.231 22.3828 26.231 22.7243C26.231 24.7372 26.231 26.7501 26.231 28.7631C26.231 29.2532 26.01 29.4541 25.5238 29.4581C23.8243 29.4581 22.1288 29.4581 20.4293 29.4581C19.911 29.4581 19.7101 29.2653 19.7101 28.751C19.7101 26.7501 19.7101 24.7493 19.7061 22.7444C19.7061 22.3788 19.8547 22.1618 20.1882 22.0252C20.6984 21.8203 21.1846 21.5471 21.7029 21.3783C22.2453 21.2015 22.3899 20.9484 22.3899 20.3337C22.3899 19.8917 22.3779 19.4337 22.3779 18.9717H16.094C16.086 19.044 16.078 19.0882 16.078 19.1324C16.078 23.6765 16.0539 24.8899 16.094 29.43C16.1101 31.4228 16.8213 33.2027 18.0748 34.7576C18.4686 35.2478 18.9828 35.4969 19.5976 35.5009C23.1051 35.509 26.6167 35.509 30.1242 35.5009C30.751 35.5009 31.2693 35.2478 31.6711 34.7415C32.9729 33.0983 33.6398 31.238 33.6358 29.1367C33.6358 24.7613 33.6358 23.7167 33.6358 19.3453C33.6358 19.2248 33.6358 19.1042 33.6358 18.9636H23.5511L23.5471 18.9676ZM34.8371 21.8323V28.8233C35.4519 28.8233 36.0505 28.8635 36.6411 28.8153C37.5974 28.7389 38.3366 27.9595 38.3407 27.0394C38.3527 24.7693 38.3527 25.83 38.3407 23.56C38.3366 22.7162 37.6456 21.9167 36.8179 21.8404C36.1751 21.7841 35.5202 21.8283 34.8371 21.8283V21.8323ZM25.0256 28.293C25.0377 28.2247 25.0497 28.1925 25.0497 28.1604C25.0497 26.5091 25.0538 24.8618 25.0457 23.2104C25.0457 23.114 24.9413 22.9694 24.8488 22.9252C24.3024 22.664 23.748 22.4189 23.1895 22.1939C23.0529 22.1417 22.86 22.1417 22.7234 22.1939C22.1931 22.4069 21.6788 22.66 21.1525 22.877C20.9395 22.9654 20.8511 23.0698 20.8551 23.3109C20.8672 24.8618 20.8632 26.4086 20.8632 27.9595C20.8632 28.068 20.8752 28.1765 20.8792 28.2889H25.0297L25.0256 28.293Z" fill="#505050"/>
<path d="M24.857 39.2817C20.4254 39.2817 15.9978 39.2817 11.5661 39.2817C11.4536 39.2817 11.3411 39.2897 11.2286 39.2776C10.9273 39.2415 10.7184 39.0044 10.7144 38.7071C10.7144 38.4058 10.9152 38.1727 11.2246 38.1406C11.3371 38.1285 11.4496 38.1285 11.5621 38.1285C20.4214 38.1285 29.2847 38.1285 38.1439 38.1285C38.7145 38.1285 38.9997 38.3214 39.0037 38.7031C39.0037 39.0848 38.7145 39.2857 38.148 39.2857C33.7163 39.2857 29.2887 39.2857 24.857 39.2857V39.2817Z" fill="#505050"/>
<path d="M20.8551 12.6114C20.8551 11.7235 20.8551 10.8355 20.8551 9.9476C20.8551 9.56993 21.056 9.30877 21.3574 9.25654C21.7632 9.18824 22.0926 9.43734 22.0966 9.88332C22.1087 11.6953 22.1087 13.5074 22.0966 15.3154C22.0966 15.7051 21.8033 15.9663 21.4578 15.9502C21.1163 15.9341 20.8592 15.6609 20.8551 15.2712C20.8471 14.3833 20.8551 13.4953 20.8551 12.6074V12.6114Z" fill="#505050"/>
<path d="M29.2806 12.6035C29.2806 13.4673 29.2806 14.3311 29.2806 15.195C29.2806 15.661 29.0315 15.9583 28.6539 15.9583C28.2842 15.9583 28.0432 15.6811 28.0391 15.2231C28.0351 13.4713 28.0351 11.7195 28.0391 9.96778C28.0391 9.50171 28.2722 9.24859 28.6619 9.25261C29.0436 9.25261 29.2806 9.5218 29.2806 9.97582C29.2847 10.8517 29.2806 11.7276 29.2806 12.6035V12.6035Z" fill="#505050"/>
<path d="M24.4549 10.482C24.4549 9.60613 24.4549 8.72623 24.4549 7.85035C24.4549 7.41642 24.6839 7.15526 25.0536 7.14321C25.4393 7.13116 25.6844 7.40035 25.6844 7.85035C25.6844 9.61818 25.6844 11.386 25.6844 13.1539C25.6844 13.5677 25.4232 13.857 25.0696 13.853C24.7161 13.853 24.4589 13.5637 24.4549 13.1498C24.4509 12.2619 24.4549 11.3699 24.4549 10.482V10.482Z" fill="#505050"/>
</svg>
